<?xml version="1.0" encoding="UTF-8"?><svg id="Layer_1" xmlns="http://www.w3.org/2000/svg" xmlns:xlink="http://www.w3.org/1999/xlink" viewBox="0 0 160.36 48.08"><defs><style>.cls-1,.cls-2{stroke:#000;stroke-miterlimit:10;stroke-width:.75px;}.cls-3{fill:url(#linear-gradient);}.cls-4,.cls-2{fill:#89a9cc;}.cls-5{fill:url(#linear-gradient-3);}.cls-6{fill:url(#linear-gradient-4);}.cls-7{fill:url(#linear-gradient-2);}</style><linearGradient id="linear-gradient" x1="80.16" y1="172.39" x2="80.16" y2="-36.42" gradientUnits="userSpaceOnUse"><stop offset=".81" stop-color="#89a9cc"/><stop offset=".83" stop-color="#fff"/></linearGradient><linearGradient id="linear-gradient-2" x1="3083.22" y1="2124.24" x2="3083.22" y2="1906.73" gradientTransform="translate(-1944.67 3107.26) rotate(-90)" xlink:href="#linear-gradient"/><linearGradient id="linear-gradient-3" x1="-1835.96" y1="3158.34" x2="-1835.96" y2="2947.64" gradientTransform="translate(3144.75 1859.98) rotate(90)" gradientUnits="userSpaceOnUse"><stop offset=".81" stop-color="#89a9cc"/><stop offset=".83" stop-color="#000"/></linearGradient><linearGradient id="linear-gradient-4" x1="-8637.82" y1="4008.89" x2="-8637.82" y2="3798.18" gradientTransform="translate(-8557.59 3883.01) rotate(-180)" gradientUnits="userSpaceOnUse"><stop offset=".81" stop-color="#89a9cc"/><stop offset=".83" stop-color="#000"/></linearGradient></defs><rect class="cls-4" x=".09" width="160.23" height="48.08"/><polygon class="cls-3" points="3.61 3.45 0 0 160.32 0 156.89 3.45 3.61 3.45"/><polygon class="cls-7" points="3.6 48.08 .04 48.08 0 0 3.6 3.45 3.6 48.08"/><polygon class="cls-5" points="156.89 3.45 160.32 0 160.36 48.04 156.88 44.63 156.89 3.45"/><polygon class="cls-6" points="156.91 44.6 160.36 48.03 .09 48.08 3.51 44.59 156.91 44.6"/><g><g><rect class="cls-1" x="128.62" y="13.12" width="17.47" height="3.9"/><rect class="cls-1" x="128.62" y="19.96" width="17.47" height="14.08"/></g><g><rect class="cls-2" x="127.65" y="11.45" width="17.47" height="3.9"/><rect class="cls-2" x="127.65" y="18.29" width="17.47" height="14.08"/></g></g></svg>