<?xml version="1.0" encoding="UTF-8"?><svg id="Layer_1" xmlns="http://www.w3.org/2000/svg" xmlns:xlink="http://www.w3.org/1999/xlink" viewBox="0 0 163.24 189.16"><defs><style>.cls-1{fill:url(#linear-gradient);}.cls-2{fill:#a8a9a9;}.cls-3{fill:url(#linear-gradient-8);}.cls-4{fill:url(#linear-gradient-3);}.cls-5{fill:url(#linear-gradient-4);}.cls-6{fill:url(#linear-gradient-2);}.cls-7{fill:url(#linear-gradient-6);}.cls-8{fill:url(#linear-gradient-7);}.cls-9{fill:url(#linear-gradient-5);}</style><linearGradient id="linear-gradient" x1="81.62" y1="173.84" x2="81.62" y2="-34.94" gradientUnits="userSpaceOnUse"><stop offset=".81" stop-color="#a9a9a9"/><stop offset=".83" stop-color="#fff"/></linearGradient><linearGradient id="linear-gradient-2" x1="3480.22" y1="1331.61" x2="3480.22" y2="1122.79" gradientTransform="translate(-1157.8 3501.82) rotate(-90)" xlink:href="#linear-gradient"/><linearGradient id="linear-gradient-3" x1="1129.94" y1="5157.75" x2="1129.94" y2="4934.97" gradientTransform="translate(1211.51 5015.55) rotate(-180)" gradientUnits="userSpaceOnUse"><stop offset=".81" stop-color="#a9a9a9"/><stop offset=".83" stop-color="#000"/></linearGradient><linearGradient id="linear-gradient-4" x1="-2266.11" y1="3859.56" x2="-2266.11" y2="3650.74" gradientTransform="translate(3848.95 2287.72) rotate(90)" xlink:href="#linear-gradient-3"/><linearGradient id="linear-gradient-5" x1="3480.2" y1="1479.93" x2="3480.2" y2="1271.12" gradientTransform="translate(-1157.8 3501.82) rotate(-90)" xlink:href="#linear-gradient"/><linearGradient id="linear-gradient-6" x1="-2266.1" y1="3871.59" x2="-2266.1" y2="3662.78" gradientTransform="translate(3848.95 2287.72) rotate(90)" xlink:href="#linear-gradient-3"/><linearGradient id="linear-gradient-7" x1="3480.29" y1="2739.2" x2="3480.29" y2="2530.39" gradientTransform="translate(-2553.57 3501.82) rotate(-90)" xlink:href="#linear-gradient"/><linearGradient id="linear-gradient-8" x1="-2266.19" y1="2612.32" x2="-2266.19" y2="2403.51" gradientTransform="translate(2453.18 2287.72) rotate(90)" xlink:href="#linear-gradient-3"/></defs><polygon class="cls-2" points="161.71 41.72 1.46 41.38 1.46 1.5 161.79 1.5 161.71 41.72"/><polygon class="cls-1" points="1.46 4.93 1.46 1.48 161.79 1.5 158.33 4.93 1.46 4.93"/><polygon class="cls-6" points="4.88 41.72 1.42 41.72 1.42 1.48 4.88 4.96 4.88 41.72"/><polygon class="cls-4" points="161.71 38.04 161.71 41.72 1.42 41.69 4.88 38.04 161.71 38.04"/><polygon class="cls-5" points="158.33 4.93 161.79 1.5 161.71 41.72 158.67 38.04 158.33 4.93"/><g><rect class="cls-9" x="149.74" y="4.93" width="3.45" height="33.38"/><rect class="cls-7" x="146.29" y="4.93" width="3.45" height="33.38"/></g><g><rect class="cls-8" x="13.25" y="4.89" width="3.45" height="33.29"/><polygon class="cls-3" points="9.79 4.93 13.25 4.89 13.25 38.18 9.79 38.18 9.79 4.93"/></g><path d="M161.74,1.5V41.72H1.5V1.5H161.74m1.5-1.5H0V43.22H163.24V0h0Z"/><path d="M161.74,43.17V187.66H1.5V43.17H161.74m1.5-1.5H0V189.16H163.24V41.67h0Z"/></svg>