<svg xmlns="http://www.w3.org/2000/svg" xmlns:xlink="http://www.w3.org/1999/xlink" viewBox="0 0 467.43 873.03"><defs><style>.cls-1{fill:#e5e5e5;}.cls-16,.cls-2{fill:none;}.cls-2,.cls-40,.cls-41{stroke:#000;stroke-miterlimit:10;}.cls-2{stroke-width:2.5px;}.cls-3{fill:url(#linear-gradient);}.cls-4{fill:url(#linear-gradient-2);}.cls-5{fill:url(#linear-gradient-3);}.cls-41,.cls-6{fill:#a9a9a9;}.cls-7{fill:url(#linear-gradient-4);}.cls-8{fill:url(#linear-gradient-5);}.cls-9{fill:url(#linear-gradient-6);}.cls-10{fill:url(#linear-gradient-7);}.cls-11{fill:url(#linear-gradient-8);}.cls-12{fill:url(#linear-gradient-9);}.cls-13{fill:url(#linear-gradient-10);}.cls-14{fill:url(#linear-gradient-11);}.cls-15{fill:url(#linear-gradient-12);}.cls-17{fill:url(#linear-gradient-13);}.cls-18{fill:url(#linear-gradient-14);}.cls-19{fill:url(#linear-gradient-15);}.cls-20{fill:url(#linear-gradient-16);}.cls-21{fill:#bdbdbd;}.cls-22{fill:#333;}.cls-23{fill:url(#linear-gradient-17);}.cls-24{fill:url(#linear-gradient-18);}.cls-25{fill:url(#linear-gradient-19);}.cls-26{fill:url(#linear-gradient-20);}.cls-27{fill:#595959;}.cls-28{fill:url(#linear-gradient-21);}.cls-29{fill:url(#linear-gradient-22);}.cls-30{fill:url(#linear-gradient-23);}.cls-31{fill:url(#linear-gradient-24);}.cls-32{fill:url(#linear-gradient-25);}.cls-33{fill:url(#linear-gradient-26);}.cls-34{fill:url(#linear-gradient-27);}.cls-35{fill:url(#linear-gradient-28);}.cls-36{fill:url(#linear-gradient-29);}.cls-37{fill:url(#linear-gradient-30);}.cls-38{fill:#fff;}.cls-39{fill:url(#linear-gradient-31);}.cls-40,.cls-41{stroke-width:1.5px;}</style><linearGradient id="linear-gradient" x1="233.72" y1="263.81" x2="233.72" y2="-4.07" gradientUnits="userSpaceOnUse"><stop offset="0.81" stop-color="#e5e5e5"/><stop offset="0.83" stop-color="#fff"/></linearGradient><linearGradient id="linear-gradient-2" x1="6880.27" y1="-544.71" x2="6880.27" y2="-769.82" gradientTransform="translate(732.05 7337.36) rotate(-90)" xlink:href="#linear-gradient"/><linearGradient id="linear-gradient-3" x1="271.01" y1="41.01" x2="271.01" y2="-93.66" gradientTransform="translate(-36.95 194.4)" gradientUnits="userSpaceOnUse"><stop offset="0.81" stop-color="#e5e5e5"/><stop offset="0.83" stop-color="#464646"/></linearGradient><linearGradient id="linear-gradient-4" x1="233.72" y1="167.92" x2="233.72" y2="-33.66" gradientUnits="userSpaceOnUse"><stop offset="0.81" stop-color="#a9a9a9"/><stop offset="0.83" stop-color="#fff"/></linearGradient><linearGradient id="linear-gradient-5" x1="7639.11" y1="-1420.1" x2="7639.11" y2="-1621.69" gradientTransform="matrix(0, -1, 1, 0, 1588.02, 7659.94)" xlink:href="#linear-gradient-4"/><linearGradient id="linear-gradient-6" x1="7638.9" y1="-1004.09" x2="7638.9" y2="-1205.68" gradientTransform="matrix(0, -1, 1, 0, 1588.02, 7659.94)" xlink:href="#linear-gradient-4"/><linearGradient id="linear-gradient-7" x1="479.14" y1="7755.98" x2="479.14" y2="7554.4" gradientTransform="translate(8007.07 -458.1) rotate(90)" gradientUnits="userSpaceOnUse"><stop offset="0.81" stop-color="#a9a9a9"/><stop offset="0.83"/></linearGradient><linearGradient id="linear-gradient-8" x1="7638.9" y1="-968.86" x2="7638.9" y2="-1170.44" gradientTransform="matrix(0, -1, 1, 0, 1588.02, 7659.94)" xlink:href="#linear-gradient-4"/><linearGradient id="linear-gradient-9" x1="479.14" y1="7720.75" x2="479.14" y2="7519.16" xlink:href="#linear-gradient-7"/><linearGradient id="linear-gradient-10" x1="7639.03" y1="-11.04" x2="7639.03" y2="-212.63" gradientTransform="matrix(0, -1, 1, 0, 192.25, 7659.94)" xlink:href="#linear-gradient-4"/><linearGradient id="linear-gradient-11" x1="479.01" y1="6762.93" x2="479.01" y2="6561.35" gradientTransform="translate(6611.3 -458.1) rotate(90)" xlink:href="#linear-gradient-7"/><linearGradient id="linear-gradient-12" x1="1273.83" y1="7094.83" x2="1273.83" y2="6869.64" gradientTransform="translate(7374.86 -816.74) rotate(90)" gradientUnits="userSpaceOnUse"><stop offset="0.81" stop-color="#e5e5e5"/><stop offset="0.83"/></linearGradient><linearGradient id="linear-gradient-13" x1="6470.01" y1="-1951.48" x2="6470.01" y2="-2151.39" gradientTransform="translate(2121.74 6968.28) rotate(-90)" gradientUnits="userSpaceOnUse"><stop offset="0.81" stop-color="#b1b1b1"/><stop offset="0.83"/></linearGradient><linearGradient id="linear-gradient-14" x1="-692.75" y1="16.41" x2="-692.75" y2="-183.5" gradientTransform="translate(915.85 276.96)" xlink:href="#linear-gradient-13"/><linearGradient id="linear-gradient-15" x1="7881.73" y1="6554.11" x2="7881.73" y2="6352.53" gradientTransform="translate(8115.45 6427.85) rotate(180)" xlink:href="#linear-gradient-7"/><linearGradient id="linear-gradient-16" x1="478.93" y1="7707.56" x2="478.93" y2="7505.98" xlink:href="#linear-gradient-7"/><linearGradient id="linear-gradient-17" x1="451.48" y1="295.76" x2="451.48" y2="94.17" gradientUnits="userSpaceOnUse"><stop offset="0.81" stop-color="#bdbdbd"/><stop offset="0.83" stop-color="#fff"/></linearGradient><linearGradient id="linear-gradient-18" x1="7197.98" y1="-119.17" x2="7197.98" y2="-326.91" gradientTransform="translate(732.05 7337.36) rotate(-90)" xlink:href="#linear-gradient-17"/><linearGradient id="linear-gradient-19" x1="956.12" y1="7078.32" x2="956.12" y2="6878.41" gradientTransform="translate(7374.86 -816.74) rotate(90)" gradientUnits="userSpaceOnUse"><stop offset="0.81" stop-color="#bdbdbd"/><stop offset="0.83"/></linearGradient><linearGradient id="linear-gradient-20" x1="8129.26" y1="5890.18" x2="8129.26" y2="5690.27" gradientTransform="translate(8580.75 5874.57) rotate(180)" xlink:href="#linear-gradient-19"/><linearGradient id="linear-gradient-21" x1="451.47" y1="1013.55" x2="451.47" y2="811.97" xlink:href="#linear-gradient-17"/><linearGradient id="linear-gradient-22" x1="6480.18" y1="-119.18" x2="6480.18" y2="-326.92" gradientTransform="translate(732.05 7337.36) rotate(-90)" xlink:href="#linear-gradient-17"/><linearGradient id="linear-gradient-23" x1="1673.91" y1="7078.33" x2="1673.91" y2="6878.42" xlink:href="#linear-gradient-19"/><linearGradient id="linear-gradient-24" x1="8129.27" y1="5172.39" x2="8129.27" y2="4972.48" gradientTransform="translate(8580.75 5874.57) rotate(180)" xlink:href="#linear-gradient-19"/><linearGradient id="linear-gradient-25" x1="1684.11" y1="8495.67" x2="1684.11" y2="8287.93" gradientTransform="translate(8764.54 -1185.83) rotate(90)" gradientUnits="userSpaceOnUse"><stop offset="0.81" stop-color="#b1b1b1"/><stop offset="0.83" stop-color="#fff"/></linearGradient><linearGradient id="linear-gradient-26" x1="9273.94" y1="5450.89" x2="9273.94" y2="5247.9" gradientTransform="translate(9496.6 6151.53) rotate(180)" xlink:href="#linear-gradient-25"/><linearGradient id="linear-gradient-27" x1="1290.22" y1="8475.4" x2="1290.22" y2="8267.65" gradientTransform="translate(8764.54 -1185.83) rotate(90)" xlink:href="#linear-gradient"/><linearGradient id="linear-gradient-28" x1="9263.66" y1="6196.31" x2="9263.66" y2="5994.72" gradientTransform="translate(9496.6 6151.53) rotate(180)" xlink:href="#linear-gradient"/><linearGradient id="linear-gradient-29" x1="6863.91" y1="-1951.48" x2="6863.91" y2="-2151.39" gradientTransform="translate(2121.74 6968.28) rotate(-90)" xlink:href="#linear-gradient-12"/><linearGradient id="linear-gradient-30" x1="-682.92" y1="-24.86" x2="-682.92" y2="-224.77" gradientTransform="translate(915.85 276.96)" xlink:href="#linear-gradient-12"/><linearGradient id="linear-gradient-31" x1="8347.03" y1="5168.08" x2="8347.03" y2="4968.16" gradientTransform="translate(8580.75 5874.57) rotate(180)" xlink:href="#linear-gradient-12"/></defs><g id="Layer_2" data-name="Layer 2"><g id="Layer_1-2" data-name="Layer 1"><path d="M465.93,1.5v870H1.5V1.5H465.93m1.5-1.5H0V873H467.43V0Z"/><rect class="cls-1" x="-180.94" y="226.25" width="827.58" height="459.68" transform="translate(-223.96 687.52) rotate(-89.82)"/><line class="cls-2" x1="1.35" y1="41.41" x2="465.93" y2="41.41"/><polygon class="cls-3" points="4.92 47.09 1.51 42.65 465.92 42.65 462.21 46.46 4.92 47.09"/><polygon class="cls-4" points="5.22 871.53 1.5 871.53 1.51 42.65 5.22 47.37 5.22 871.53"/><rect class="cls-5" x="5.19" y="124.23" width="457.74" height="2.23"/><rect class="cls-6" x="1.64" y="1.66" width="464.3" height="38.51"/><polygon class="cls-7" points="1.5 4.83 1.5 1.5 465.93 1.5 462.6 4.83 1.5 4.83"/><polygon class="cls-8" points="4.83 40.03 1.51 40.16 1.5 1.5 4.83 4.83 4.83 40.03"/><rect class="cls-9" x="417.51" y="4.97" width="3.34" height="32.14"/><polygon class="cls-10" points="414.17 5.01 417.51 4.97 417.51 37.11 414.17 37.11 414.17 5.01"/><rect class="cls-11" x="452.75" y="4.97" width="3.34" height="32.14"/><polygon class="cls-12" points="449.41 5.01 452.75 4.97 452.75 37.11 449.41 37.11 449.41 5.01"/><rect class="cls-13" x="14.79" y="4.84" width="3.34" height="32.14"/><polygon class="cls-14" points="11.46 4.88 14.79 4.84 14.79 36.98 11.46 36.98 11.46 4.88"/><polygon class="cls-15" points="462.21 46.46 465.92 42.65 465.93 871.53 462.57 868.23 462.21 46.46"/><rect class="cls-16" x="7.34" y="130.75" width="312.8" height="401.01"/><polygon class="cls-17" points="8.52 864.87 5.22 868.21 5.22 128.33 8.53 131.63 8.52 864.87"/><polygon class="cls-18" points="8.4 131.63 5.22 128.33 440.97 128.33 437.7 131.64 8.4 131.63"/><polygon class="cls-19" points="465.63 36.83 465.93 40.16 1.51 40.16 4.83 36.83 465.63 36.83"/><polygon class="cls-20" points="462.6 4.83 465.93 1.5 465.93 40.16 462.6 36.54 462.6 4.83"/><rect class="cls-21" x="440.88" y="128.83" width="21.18" height="738.89"/><path class="cls-22" d="M461.56,129.33V867.22H441.38V129.33h20.18m1-1H440.38V868.22h22.18V128.33Z"/><polygon class="cls-23" points="444.82 132.67 441.38 129.33 461.58 129.33 458.27 132.67 444.82 132.67"/><polygon class="cls-24" points="444.82 149.43 441.38 149.43 441.39 129.33 444.82 132.67 444.82 149.43"/><polygon class="cls-25" points="458.28 132.67 461.58 129.33 461.58 149.42 458.27 146.12 458.28 132.67"/><polygon class="cls-26" points="458.28 146.13 461.61 149.43 441.38 149.43 444.82 146.12 458.28 146.13"/><rect class="cls-21" x="444.82" y="132.66" width="13.45" height="13.45"/><polygon class="cls-27" points="447.86 142.18 451.54 134.98 455.23 142.18 447.86 142.18"/><polygon class="cls-28" points="444.8 850.46 441.37 847.13 461.57 847.13 458.26 850.46 444.8 850.46"/><polygon class="cls-29" points="444.8 867.23 441.37 867.23 441.38 847.13 444.8 850.46 444.8 867.23"/><polygon class="cls-30" points="458.26 850.46 461.56 847.13 461.56 867.22 458.26 863.92 458.26 850.46"/><polygon class="cls-31" points="458.26 863.92 461.6 867.23 441.37 867.23 444.8 863.92 458.26 863.92"/><rect class="cls-21" x="444.8" y="850.45" width="13.45" height="13.45"/><polygon class="cls-27" points="455.21 853.59 451.53 860.79 447.85 853.59 455.21 853.59"/><polygon class="cls-32" points="436.94 131.64 440.37 128.33 440.37 868.23 437.2 865.65 436.94 131.64"/><polygon class="cls-33" points="437.2 864.87 440.37 868.21 4.94 868.23 8.32 864.87 437.2 864.87"/><polygon class="cls-34" points="457.21 87.15 460.65 87.15 460.64 121.65 457.21 118.31 457.21 87.15"/><polygon class="cls-35" points="457.21 118.31 460.64 121.65 5.22 121.65 8.52 118.31 457.21 118.31"/><polygon class="cls-36" points="8.52 118.31 5.22 121.65 5.22 87.08 8.53 90.38 8.52 118.31"/><polygon class="cls-37" points="8.53 90.36 5.19 87.06 460.65 87.06 457.21 90.37 8.53 90.36"/><rect class="cls-38" x="8.53" y="90.42" width="448.68" height="27.89"/><rect class="cls-16" x="7.34" y="130.75" width="312.8" height="401.01"/><rect class="cls-16" x="8.98" y="134.69" width="312.8" height="401.01"/><polygon class="cls-39" points="462.57 868.23 465.93 871.54 1.5 871.54 4.94 868.23 462.57 868.23"/><rect class="cls-40" x="431.69" y="18.74" width="6.87" height="6.87"/><rect class="cls-41" x="430.74" y="17.75" width="6.87" height="6.87"/></g></g></svg>