<?xml version="1.0" encoding="UTF-8"?><svg id="Layer_1" xmlns="http://www.w3.org/2000/svg" xmlns:xlink="http://www.w3.org/1999/xlink" viewBox="0 0 20.96 20.82"><defs><style>.cls-1{fill:url(#linear-gradient);}.cls-2{fill:#a6a7a7;}.cls-3{fill:#595959;stroke:#000;stroke-miterlimit:10;stroke-width:2px;}.cls-4{fill:url(#linear-gradient-3);}.cls-5{fill:url(#linear-gradient-4);}.cls-6{fill:url(#linear-gradient-2);}</style><linearGradient id="linear-gradient" x1="10.46" y1="172.39" x2="10.46" y2="-36.42" gradientUnits="userSpaceOnUse"><stop offset=".81" stop-color="#a6a7a7"/><stop offset=".83" stop-color="#fff"/></linearGradient><linearGradient id="linear-gradient-2" x1="2862.58" y1="2250.39" x2="2862.58" y2="2035.2" gradientTransform="translate(-2072.73 2873) rotate(-90)" gradientUnits="userSpaceOnUse"><stop offset=".81" stop-color="#a6a7a7"/><stop offset=".83" stop-color="#fff"/></linearGradient><linearGradient id="linear-gradient-3" x1="-1977.64" y1="3060.53" x2="-1977.64" y2="2853.45" gradientTransform="translate(2910.49 1988.05) rotate(90)" gradientUnits="userSpaceOnUse"><stop offset=".81" stop-color="#a6a7a7"/><stop offset=".83" stop-color="#000"/></linearGradient><linearGradient id="linear-gradient-4" x1="1301.12" y1="4365.13" x2="1301.12" y2="4158.06" gradientTransform="translate(1311.6 4215) rotate(-180)" gradientUnits="userSpaceOnUse"><stop offset=".81" stop-color="#a6a7a7"/><stop offset=".83" stop-color="#000"/></linearGradient></defs><g><polygon class="cls-1" points="3.56 3.45 0 0 20.93 0 17.5 3.45 3.56 3.45"/><polygon class="cls-6" points="3.56 20.82 0 20.82 .01 0 3.56 3.45 3.56 20.82"/><polygon class="cls-4" points="17.5 3.45 20.92 0 20.92 20.81 17.5 17.39 17.5 3.45"/><polygon class="cls-5" points="17.5 17.4 20.96 20.82 0 20.82 3.56 17.39 17.5 17.4"/><rect class="cls-2" x="3.56" y="3.44" width="13.94" height="13.94"/></g><g><line class="cls-3" x1="5.82" y1="15.07" x2="15.14" y2="5.75"/><line class="cls-3" x1="5.82" y1="5.75" x2="15.14" y2="15.07"/></g></svg>