<?xml version="1.0" encoding="utf-8"?>
<svg viewBox="0 0 421.17 166.98" xmlns="http://www.w3.org/2000/svg" xmlns:xlink="http://www.w3.org/1999/xlink">
  <defs>
    <linearGradient id="linear-gradient" x1="1691.64" y1="8503.22" x2="1691.64" y2="8293.07" gradientTransform="translate(8750.9 -1608.16) rotate(90)" gradientUnits="userSpaceOnUse">
      <stop offset="0.81" stop-color="#e5e5e5"/>
      <stop offset="0.83" stop-color="#fff"/>
    </linearGradient>
    <linearGradient id="linear-gradient-2" x1="6453.48" y1="-3840.07" x2="6453.48" y2="-4042.31" gradientTransform="translate(4007.05 6536.97) rotate(-90)" gradientUnits="userSpaceOnUse">
      <stop offset="0.81" stop-color="#e5e5e5"/>
      <stop offset="0.83"/>
    </linearGradient>
    <linearGradient id="linear-gradient-3" x1="-1645.58" y1="-639.77" x2="-1645.58" y2="-833.39" gradientTransform="translate(1856.16 799.62)" xlink:href="#linear-gradient-2"/>
    <linearGradient id="linear-gradient-4" x1="-414.07" y1="1753.54" x2="-414.07" y2="1552.23" gradientTransform="translate(623.94 -1575.38)" gradientUnits="userSpaceOnUse">
      <stop offset="0.81" stop-color="#e5e5e5"/>
      <stop offset="0.83" stop-color="#fff"/>
    </linearGradient>
    <linearGradient id="linear-gradient-5" x1="8521.47" y1="3098.95" x2="8521.47" y2="2897.64" gradientTransform="translate(8733.01 2944.72) rotate(180)" gradientUnits="userSpaceOnUse">
      <stop offset="0.81" stop-color="#e5e5e5"/>
      <stop offset="0.83"/>
    </linearGradient>
    <linearGradient id="linear-gradient-6" x1="6920.67" y1="-1034.8" x2="6920.67" y2="-1236.11" gradientTransform="translate(1213.07 6972.42) rotate(-90)" xlink:href="#linear-gradient-4"/>
    <linearGradient id="linear-gradient-7" x1="1186.8" y1="5887.29" x2="1186.8" y2="5685.98" gradientTransform="translate(5733.16 -1136.65) rotate(90)" xlink:href="#linear-gradient-5"/>
    <linearGradient id="linear-gradient-8" x1="2369.08" y1="9202.42" x2="2369.08" y2="9001.11" gradientTransform="translate(9447.22 -2317.37) rotate(90)" xlink:href="#linear-gradient-4"/>
    <linearGradient id="linear-gradient-9" x1="5741.59" y1="-4349.93" x2="5741.59" y2="-4551.24" gradientTransform="translate(4927.12 5791.7) rotate(-90)" xlink:href="#linear-gradient-5"/>
    <linearGradient id="linear-gradient-10" x1="-412.41" y1="1793.69" x2="-412.41" y2="1592.38" xlink:href="#linear-gradient-4"/>
    <linearGradient id="linear-gradient-11" x1="8521.47" y1="3058.8" x2="8521.47" y2="2857.49" xlink:href="#linear-gradient-5"/>
    <linearGradient id="linear-gradient-12" x1="-412.41" y1="1833.11" x2="-412.41" y2="1631.79" xlink:href="#linear-gradient-4"/>
    <linearGradient id="linear-gradient-13" x1="8521.47" y1="3019.38" x2="8521.47" y2="2818.07" xlink:href="#linear-gradient-5"/>
    <linearGradient id="linear-gradient-14" x1="10217.35" y1="4769.46" x2="10217.35" y2="4574.21" gradientTransform="translate(10427.94 4775.24) rotate(180)" xlink:href="#linear-gradient"/>
    <style>.cls-1{fill:#e5e5e5;}.cls-2{fill:url(#linear-gradient);}.cls-3{fill:url(#linear-gradient-2);}.cls-4{fill:url(#linear-gradient-3);}.cls-5{fill:url(#linear-gradient-4);}.cls-6{fill:url(#linear-gradient-5);}.cls-7{fill:url(#linear-gradient-6);}.cls-8{fill:url(#linear-gradient-7);}.cls-9{fill:url(#linear-gradient-8);}.cls-10{fill:url(#linear-gradient-9);}.cls-11{fill:url(#linear-gradient-10);}.cls-12{fill:url(#linear-gradient-11);}.cls-13{fill:url(#linear-gradient-12);}.cls-14{fill:url(#linear-gradient-13);}.cls-15{fill:url(#linear-gradient-14);}</style>
  </defs>
  <g id="Layer_2" data-name="Layer 2">
    <g id="Layer_1-2" data-name="Layer 1">
      <rect class="cls-1" x="2.92" y="3.2" width="415.28" height="163.77"/>
      <polygon class="cls-2" points="417.7 0 421.17 0 421.17 166.98 417.71 163.75 417.7 0"/>
      <polygon class="cls-3" points="3.35 163.75 0.01 166.98 0.01 0 3.36 3.2 3.35 163.75"/>
      <polygon class="cls-4" points="3.37 3.2 0 0 421.17 0 417.7 3.2 3.37 3.2"/>
      <polygon class="cls-5" points="8.74 15.29 8.74 11.96 411 11.96 407.66 15.29 8.74 15.29"/>
      <polygon class="cls-6" points="414.32 8.76 411 11.96 8.74 11.96 8.74 8.63 414.32 8.76"/>
      <rect class="cls-7" x="12.07" y="11.96" width="3.33" height="79.57"/>
      <polygon class="cls-8" points="8.74 8.76 12.07 11.96 12.07 88.2 8.74 91.53 8.74 8.76"/>
      <polygon class="cls-9" points="407.66 15.29 411 11.96 411 91.46 407.66 91.46 407.66 15.29"/>
      <polygon class="cls-10" points="414.32 91.46 411 88.26 411 11.96 414.32 8.76 414.32 91.46"/>
      <rect class="cls-11" x="12.07" y="52.11" width="398.92" height="3.33"/>
      <rect class="cls-12" x="12.07" y="48.78" width="398.92" height="3.33"/>
      <rect class="cls-13" x="8.74" y="91.53" width="405.58" height="3.33"/>
      <polygon class="cls-14" points="411 88.2 414.32 91.53 8.74 91.53 12.07 88.2 411 88.2"/>
      <polygon class="cls-15" points="417.7 163.75 421.17 166.98 0.01 166.98 3.35 163.75 417.7 163.75"/>
    </g>
  </g>
  <rect x="8.588" y="8.393" width="406.792" height="146.959" style="fill: rgb(229, 229, 229); stroke-opacity: 0.9;"/>
</svg>