<?xml version="1.0" encoding="UTF-8"?><svg id="Layer_1" xmlns="http://www.w3.org/2000/svg" xmlns:xlink="http://www.w3.org/1999/xlink" viewBox="0 0 402.05 524.27"><defs><style>.cls-1{fill:url(#linear-gradient);}.cls-2{fill:url(#linear-gradient-8);}.cls-3{fill:url(#linear-gradient-3);}.cls-4{fill:url(#linear-gradient-4);}.cls-5{fill:url(#linear-gradient-2);}.cls-6{fill:url(#linear-gradient-6);}.cls-7{fill:url(#linear-gradient-7);}.cls-8{fill:url(#linear-gradient-5);}</style><linearGradient id="linear-gradient" x1="3362.44" y1="420.14" x2="3362.44" y2="81.14" gradientTransform="translate(-140.27 3624.68) rotate(-90)" gradientUnits="userSpaceOnUse"><stop offset=".81" stop-color="#e5e5e5"/><stop offset=".83" stop-color="#000"/></linearGradient><linearGradient id="linear-gradient-2" x1="-1722.64" y1="4586.7" x2="-1722.64" y2="4247.7" gradientTransform="translate(4317.8 1985) rotate(90)" xlink:href="#linear-gradient"/><linearGradient id="linear-gradient-3" x1="3362.3" y1="810.87" x2="3362.3" y2="471.88" xlink:href="#linear-gradient"/><linearGradient id="linear-gradient-4" x1="-1722.93" y1="4199.37" x2="-1722.93" y2="3855.85" gradientTransform="translate(4317.8 1985) rotate(90)" xlink:href="#linear-gradient"/><linearGradient id="linear-gradient-5" x1="-844.24" y1="-347.73" x2="-844.24" y2="-699.42" gradientTransform="translate(1045.36 638.07)" xlink:href="#linear-gradient"/><linearGradient id="linear-gradient-6" x1="2484.04" y1="5352.94" x2="2484.04" y2="5028.36" gradientTransform="translate(2685.04 5096.15) rotate(-180)" xlink:href="#linear-gradient"/><linearGradient id="linear-gradient-7" x1="-844.52" y1="155.1" x2="-844.52" y2="-183.9" gradientTransform="translate(1045.36 638.07)" xlink:href="#linear-gradient"/><linearGradient id="linear-gradient-8" x1="2484.08" y1="4839.19" x2="2484.08" y2="4515.39" gradientTransform="translate(2685.04 5096.15) rotate(-180)" xlink:href="#linear-gradient"/></defs><polygon class="cls-1" points="5.36 518.92 0 524.27 .17 .21 5.61 5.82 5.36 518.92"/><polygon class="cls-5" points="5.61 5.82 10.97 11.18 10.97 513.31 5.36 518.92 5.61 5.82"/><polygon class="cls-3" points="396.33 518.87 390.73 513.36 390.9 11.18 396.34 5.89 396.33 518.87"/><polygon class="cls-4" points="396.34 5.89 402.02 0 402.02 524.14 396.42 518.77 396.34 5.89"/><polygon class="cls-8" points="5.61 5.81 .19 .21 402.05 0 396.37 5.82 5.61 5.81"/><polygon class="cls-6" points="396.38 5.82 390.86 11.18 10.97 11.18 5.61 5.81 396.38 5.82"/><polygon class="cls-7" points="5.36 518.9 10.97 513.31 390.72 513.31 396.33 518.92 5.36 518.9"/><polygon class="cls-2" points="396.45 518.92 401.92 524.14 0 524.27 5.36 518.92 396.45 518.92"/></svg>