<svg xmlns="http://www.w3.org/2000/svg" xmlns:xlink="http://www.w3.org/1999/xlink" viewBox="0 0 420.09 258.84"><defs><style>.cls-1{fill:#bdbdbc;}.cls-2{fill:#333;}.cls-3{fill:url(#linear-gradient);}.cls-4{fill:url(#linear-gradient-2);}.cls-5{fill:url(#linear-gradient-3);}.cls-6{fill:url(#linear-gradient-4);}.cls-7{fill:#595959;}.cls-8{fill:url(#linear-gradient-5);}.cls-9{fill:url(#linear-gradient-6);}.cls-10{fill:url(#linear-gradient-7);}.cls-11{fill:url(#linear-gradient-8);}.cls-12{fill:url(#linear-gradient-9);}.cls-13{fill:#e5e5e5;}.cls-14{fill:url(#linear-gradient-10);}.cls-15{fill:url(#linear-gradient-11);}.cls-16{fill:url(#linear-gradient-12);}.cls-17{fill:#fff;}</style><linearGradient id="linear-gradient" x1="409" y1="167.2" x2="409" y2="-34.12" gradientUnits="userSpaceOnUse"><stop offset="0.81" stop-color="#bdbdbc"/><stop offset="0.83" stop-color="#fff"/></linearGradient><linearGradient id="linear-gradient-2" x1="6067.55" y1="-1380.86" x2="6067.55" y2="-1588.32" gradientTransform="translate(1951.05 6078.59) rotate(-90)" xlink:href="#linear-gradient"/><linearGradient id="linear-gradient-3" x1="2046.77" y1="5861.81" x2="2046.77" y2="5662.17" gradientTransform="translate(6116.08 -2035.74) rotate(90)" gradientUnits="userSpaceOnUse"><stop offset="0.81" stop-color="#bdbdbc"/><stop offset="0.83"/></linearGradient><linearGradient id="linear-gradient-4" x1="8131.96" y1="3540.55" x2="8131.96" y2="3340.91" gradientTransform="translate(8540.97 3396.8) rotate(180)" xlink:href="#linear-gradient-3"/><linearGradient id="linear-gradient-5" x1="409.02" y1="403.96" x2="409.02" y2="202.65" xlink:href="#linear-gradient"/><linearGradient id="linear-gradient-6" x1="5830.78" y1="-1380.85" x2="5830.78" y2="-1588.31" gradientTransform="translate(1951.05 6078.59) rotate(-90)" xlink:href="#linear-gradient"/><linearGradient id="linear-gradient-7" x1="2283.54" y1="5861.79" x2="2283.54" y2="5662.16" xlink:href="#linear-gradient-3"/><linearGradient id="linear-gradient-8" x1="8131.94" y1="3303.78" x2="8131.94" y2="3104.14" gradientTransform="translate(8540.97 3396.8) rotate(180)" xlink:href="#linear-gradient-3"/><linearGradient id="linear-gradient-9" x1="6102.73" y1="-4114.08" x2="6102.73" y2="-4316.32" gradientTransform="translate(4281.06 6232.16) rotate(-90)" gradientUnits="userSpaceOnUse"><stop offset="0.81" stop-color="#e5e5e5"/><stop offset="0.83"/></linearGradient><linearGradient id="linear-gradient-10" x1="10198.13" y1="4098.77" x2="10198.13" y2="3903.52" gradientTransform="translate(10397.14 4196.42) rotate(180)" gradientUnits="userSpaceOnUse"><stop offset="0.81" stop-color="#e5e5e5"/><stop offset="0.83" stop-color="#fff"/></linearGradient><linearGradient id="linear-gradient-11" x1="2011.59" y1="8225.89" x2="2011.59" y2="8010.52" gradientTransform="translate(8446.08 -1882.17) rotate(90)" xlink:href="#linear-gradient-10"/><linearGradient id="linear-gradient-12" x1="-1657.21" y1="-639.75" x2="-1657.21" y2="-833.38" gradientTransform="translate(1856.16 799.62)" xlink:href="#linear-gradient-9"/></defs><g id="Layer_2" data-name="Layer 2"><g id="Layer_1-2" data-name="Layer 1"><rect class="cls-1" x="398.43" y="0.5" width="21.16" height="257.84"/><path class="cls-2" d="M419.09,1V257.84H398.93V1h20.16m1-1H397.93V258.84h22.16V0Z"/><polygon class="cls-3" points="402.35 4.33 398.92 1 419.09 1 415.78 4.33 402.35 4.33"/><polygon class="cls-4" points="402.35 21.07 398.92 21.07 398.93 1 402.35 4.33 402.35 21.07"/><polygon class="cls-5" points="415.79 4.33 419.09 1 419.09 21.06 415.78 17.77 415.79 4.33"/><polygon class="cls-6" points="415.79 17.77 419.12 21.07 398.92 21.07 402.35 17.77 415.79 17.77"/><rect class="cls-1" x="402.35" y="4.32" width="13.44" height="13.44"/><polygon class="cls-7" points="405.39 13.83 409.06 6.64 412.74 13.83 405.39 13.83"/><polygon class="cls-8" points="402.36 241.1 398.93 237.77 419.11 237.77 415.8 241.1 402.36 241.1"/><polygon class="cls-9" points="402.36 257.84 398.93 257.84 398.94 237.77 402.36 241.1 402.36 257.84"/><polygon class="cls-10" points="415.81 241.1 419.1 237.77 419.1 257.83 415.8 254.53 415.81 241.1"/><polygon class="cls-11" points="415.8 254.54 419.13 257.84 398.93 257.84 402.36 254.53 415.8 254.54"/><rect class="cls-1" x="402.36" y="241.09" width="13.44" height="13.44"/><polygon class="cls-7" points="412.76 244.22 409.08 251.41 405.4 244.22 412.76 244.22"/><polygon class="cls-12" points="3.35 255.61 0.01 258.84 0.01 0.01 3.36 3.21 3.35 255.61"/><rect class="cls-13" x="3.27" y="3.21" width="394.64" height="252.4"/><polygon class="cls-14" points="394.44 255.61 398 258.84 0.01 258.84 3.35 255.61 394.44 255.61"/><polygon class="cls-15" points="394.44 0.01 397.91 0.01 398 258.84 394.44 255.61 394.44 0.01"/><polygon class="cls-16" points="3.37 3.21 0 0.01 397.91 0.01 394.44 3.22 3.37 3.21"/><path class="cls-17" d="M219.61,17.73v1.14h-7.18V17.73Zm-.16-9.34V9.51H212.6V8.39Zm-.53,4.5V14h-5.81V12.89Z"/></g></g></svg>