<svg xmlns="http://www.w3.org/2000/svg" xmlns:xlink="http://www.w3.org/1999/xlink" viewBox="0 0 361.48 513.49"><defs><style>.cls-1{fill:#a6a7a7;}.cls-2{fill:#e3e3e3;}.cls-3{fill:#80a9ce;}.cls-4{fill:url(#linear-gradient);}.cls-5{fill:url(#linear-gradient-2);}.cls-6{fill:url(#linear-gradient-3);}.cls-7{fill:url(#linear-gradient-4);}.cls-8{fill:url(#linear-gradient-5);}.cls-9{fill:url(#linear-gradient-6);}.cls-10{fill:url(#linear-gradient-7);}.cls-11{fill:url(#linear-gradient-8);}.cls-12,.cls-18{fill:none;}.cls-12{stroke:#000;stroke-miterlimit:10;stroke-width:2.5px;}.cls-13{fill:url(#linear-gradient-9);}.cls-14{fill:url(#linear-gradient-10);}.cls-15{fill:url(#linear-gradient-11);}.cls-16{fill:url(#linear-gradient-12);}.cls-17{fill:url(#linear-gradient-13);}.cls-19{fill:url(#linear-gradient-14);}.cls-20{fill:url(#linear-gradient-15);}.cls-21{fill:url(#linear-gradient-16);}.cls-22{fill:url(#linear-gradient-17);}.cls-23{fill:url(#linear-gradient-18);}.cls-24{fill:url(#linear-gradient-19);}.cls-25{fill:url(#linear-gradient-20);}.cls-26{fill:url(#linear-gradient-21);}.cls-27{fill:url(#linear-gradient-22);}.cls-28{fill:url(#linear-gradient-23);}.cls-29{fill:#fff;}.cls-30{fill:#e5e5e5;}.cls-31{fill:url(#linear-gradient-24);}.cls-32{fill:url(#linear-gradient-25);}.cls-33{fill:url(#linear-gradient-26);}.cls-34{fill:url(#linear-gradient-27);}.cls-35{fill:url(#linear-gradient-28);}.cls-36{fill:url(#linear-gradient-29);}.cls-37{fill:url(#linear-gradient-30);}.cls-38{fill:url(#linear-gradient-31);}.cls-39{fill:url(#linear-gradient-32);}.cls-40{fill:url(#linear-gradient-33);}.cls-41{fill:url(#linear-gradient-34);}.cls-42{fill:url(#linear-gradient-35);}.cls-43{fill:#bbbbba;}.cls-44{fill:#333;}</style><linearGradient id="linear-gradient" x1="180.7" y1="173.89" x2="180.7" y2="-34.92" gradientUnits="userSpaceOnUse"><stop offset="0.81" stop-color="#a7a7a7"/><stop offset="0.83" stop-color="#fff"/></linearGradient><linearGradient id="linear-gradient-2" x1="4451.43" y1="1802.76" x2="4451.43" y2="1593.95" gradientTransform="matrix(0, -1, 1, 0, -1628.95, 4473.03)" xlink:href="#linear-gradient"/><linearGradient id="linear-gradient-3" x1="1530.86" y1="6588.61" x2="1530.86" y2="6379.79" gradientTransform="translate(1711.56 6457.92) rotate(180)" gradientUnits="userSpaceOnUse"><stop offset="0.81" stop-color="#a7a7a7"/><stop offset="0.83"/></linearGradient><linearGradient id="linear-gradient-4" x1="-2737.32" y1="4632.57" x2="-2737.32" y2="4423.75" gradientTransform="translate(4820.16 2758.88) rotate(90)" xlink:href="#linear-gradient-3"/><linearGradient id="linear-gradient-5" x1="4451.47" y1="2120.18" x2="4451.47" y2="1911.36" gradientTransform="matrix(0, -1, 1, 0, -1628.95, 4473.03)" xlink:href="#linear-gradient"/><linearGradient id="linear-gradient-6" x1="-2737.32" y1="4673.72" x2="-2737.32" y2="4464.9" gradientTransform="translate(4820.16 2758.88) rotate(90)" xlink:href="#linear-gradient-3"/><linearGradient id="linear-gradient-7" x1="4451.47" y1="3210.23" x2="4451.47" y2="3001.41" gradientTransform="matrix(0, -1, 1, 0, -3024.72, 4473.03)" xlink:href="#linear-gradient"/><linearGradient id="linear-gradient-8" x1="-2737.32" y1="3583.66" x2="-2737.32" y2="3374.85" gradientTransform="translate(3424.39 2758.88) rotate(90)" xlink:href="#linear-gradient-3"/><linearGradient id="linear-gradient-9" x1="180.72" y1="216.59" x2="180.72" y2="7.78" gradientUnits="userSpaceOnUse"><stop offset="0.81" stop-color="#e3e3e3"/><stop offset="0.83" stop-color="#fff"/></linearGradient><linearGradient id="linear-gradient-10" x1="3927.26" y1="2671.44" x2="3927.26" y2="2447.24" gradientTransform="translate(-2484.92 4150.45) rotate(-90)" xlink:href="#linear-gradient-9"/><linearGradient id="linear-gradient-11" x1="-2177.05" y1="3998.92" x2="-2177.05" y2="3791.84" gradientTransform="translate(4187.94 2400.23) rotate(90)" gradientUnits="userSpaceOnUse"><stop offset="0.81" stop-color="#e3e3e3"/><stop offset="0.83"/></linearGradient><linearGradient id="linear-gradient-12" x1="217.9" y1="-19.67" x2="217.9" y2="-121.13" gradientTransform="translate(-36.95 194.4)" gradientUnits="userSpaceOnUse"><stop offset="0.81" stop-color="#e3e3e3"/><stop offset="0.83" stop-color="#464646"/></linearGradient><linearGradient id="linear-gradient-13" x1="1996.16" y1="5687.38" x2="1996.16" y2="5463.41" gradientTransform="translate(2176.86 5904.64) rotate(180)" xlink:href="#linear-gradient-11"/><linearGradient id="linear-gradient-14" x1="2911.9" y1="6011.63" x2="2911.9" y2="5734.86" gradientTransform="translate(3092.71 6181.6) rotate(180)" gradientUnits="userSpaceOnUse"><stop offset="0.81" stop-color="#80a9ce"/><stop offset="0.83" stop-color="#fff"/></linearGradient><linearGradient id="linear-gradient-15" x1="3534.34" y1="1286.34" x2="3534.34" y2="1060.98" gradientTransform="translate(-1095.23 3781.37) rotate(-90)" gradientUnits="userSpaceOnUse"><stop offset="0.81" stop-color="#80a9ce"/><stop offset="0.83"/></linearGradient><linearGradient id="linear-gradient-16" x1="-734.88" y1="-10.42" x2="-734.88" y2="-217.5" gradientTransform="translate(915.85 276.96)" xlink:href="#linear-gradient-15"/><linearGradient id="linear-gradient-17" x1="-1784.2" y1="5398.67" x2="-1784.2" y2="5183.48" gradientTransform="translate(5577.63 2031.15) rotate(90)" xlink:href="#linear-gradient-14"/><linearGradient id="linear-gradient-18" x1="4451.43" y1="3367.22" x2="4451.43" y2="3158.4" gradientTransform="matrix(0, -1, 1, 0, -3024.72, 4473.03)" gradientUnits="userSpaceOnUse"><stop offset="0.81" stop-color="#a9a9a9"/><stop offset="0.83" stop-color="#fff"/></linearGradient><linearGradient id="linear-gradient-19" x1="-2737.28" y1="3426.67" x2="-2737.28" y2="3217.86" gradientTransform="translate(3424.39 2758.88) rotate(90)" gradientUnits="userSpaceOnUse"><stop offset="0.81" stop-color="#a9a9a9"/><stop offset="0.83"/></linearGradient><linearGradient id="linear-gradient-20" x1="-1963.44" y1="5400.51" x2="-1963.44" y2="5185.32" gradientTransform="translate(5577.63 2031.15) rotate(90)" gradientUnits="userSpaceOnUse"><stop offset="0.81" stop-color="#e5e5e5"/><stop offset="0.83" stop-color="#fff"/></linearGradient><linearGradient id="linear-gradient-21" x1="2911.85" y1="6268.34" x2="2911.85" y2="6059.53" gradientTransform="translate(3092.71 6181.6) rotate(180)" xlink:href="#linear-gradient-20"/><linearGradient id="linear-gradient-22" x1="3713.62" y1="1273.15" x2="3713.62" y2="1066.07" gradientTransform="translate(-1095.23 3781.37) rotate(-90)" gradientUnits="userSpaceOnUse"><stop offset="0.81" stop-color="#e5e5e5"/><stop offset="0.83"/></linearGradient><linearGradient id="linear-gradient-23" x1="-735" y1="-56.18" x2="-735" y2="-263.26" gradientTransform="translate(915.85 276.96)" xlink:href="#linear-gradient-22"/><linearGradient id="linear-gradient-24" x1="3863.66" y1="6490.8" x2="3863.66" y2="6288.27" gradientTransform="translate(4033.03 6704.26) rotate(180)" xlink:href="#linear-gradient-20"/><linearGradient id="linear-gradient-25" x1="-2307.36" y1="6382.07" x2="-2307.36" y2="6164.08" gradientTransform="translate(6517.95 2553.81) rotate(90)" xlink:href="#linear-gradient-20"/><linearGradient id="linear-gradient-26" x1="4057.57" y1="350.99" x2="4057.57" y2="141.22" gradientTransform="translate(-154.92 4304.02) rotate(-90)" xlink:href="#linear-gradient-22"/><linearGradient id="linear-gradient-27" x1="-1686.8" y1="-521.57" x2="-1686.8" y2="-722.42" gradientTransform="translate(1856.16 799.62)" xlink:href="#linear-gradient-22"/><linearGradient id="linear-gradient-28" x1="-455.8" y1="1872.41" x2="-455.8" y2="1663.6" gradientTransform="translate(623.94 -1575.38)" gradientUnits="userSpaceOnUse"><stop offset="0.81" stop-color="#e5e5e5"/><stop offset="0.83" stop-color="#fff"/></linearGradient><linearGradient id="linear-gradient-29" x1="2168.23" y1="4921.48" x2="2168.23" y2="4712.67" gradientTransform="translate(2338.09 4873.73) rotate(180)" gradientUnits="userSpaceOnUse"><stop offset="0.81" stop-color="#e5e5e5"/><stop offset="0.83"/></linearGradient><linearGradient id="linear-gradient-30" x1="-454.38" y1="2119.55" x2="-454.38" y2="1910.73" xlink:href="#linear-gradient-28"/><linearGradient id="linear-gradient-31" x1="2168.53" y1="4674.35" x2="2168.53" y2="4465.53" xlink:href="#linear-gradient-29"/><linearGradient id="linear-gradient-32" x1="4493.43" y1="3156.69" x2="4493.43" y2="2947.87" gradientTransform="translate(-2948.9 4739.47) rotate(-90)" xlink:href="#linear-gradient-28"/><linearGradient id="linear-gradient-33" x1="-2778.76" y1="3637.21" x2="-2778.76" y2="3428.39" gradientTransform="translate(3500.21 3025.31) rotate(90)" xlink:href="#linear-gradient-29"/><linearGradient id="linear-gradient-34" x1="-1598.12" y1="7082.33" x2="-1598.12" y2="6873.51" gradientTransform="translate(7214.27 1844.6) rotate(90)" xlink:href="#linear-gradient-28"/><linearGradient id="linear-gradient-35" x1="3312.3" y1="-288.44" x2="3312.3" y2="-497.25" gradientTransform="translate(765.16 3558.75) rotate(-90)" xlink:href="#linear-gradient-29"/></defs><g id="Layer_2" data-name="Layer 2"><g id="Layer_1-2" data-name="Layer 1"><path d="M360,1.5V402.16H1.5V1.5H360m1.5-1.5H0V403.66H361.48V0Z"/><rect class="cls-1" x="1.5" y="1.5" width="358.49" height="41.77"/><rect class="cls-2" x="1.5" y="44.21" width="358.48" height="357.96"/><rect class="cls-3" x="8.23" y="99.01" width="344.82" height="294.87"/><polygon class="cls-4" points="1.5 4.96 1.42 1.5 359.98 1.5 356.53 4.96 1.5 4.96"/><polygon class="cls-5" points="4.88 41.7 1.42 41.7 1.42 1.5 4.88 4.96 4.88 41.7"/><polygon class="cls-6" points="359.98 38.25 359.98 41.7 1.42 41.7 4 38.25 359.98 38.25"/><polygon class="cls-7" points="356.53 4.96 359.98 1.46 359.98 41.66 356.53 38.2 356.53 4.96"/><rect class="cls-8" x="318.84" y="4.91" width="3.45" height="33.29"/><polygon class="cls-9" points="315.38 4.96 318.84 4.91 318.84 38.2 315.38 38.2 315.38 4.96"/><rect class="cls-10" x="13.12" y="4.91" width="3.45" height="33.29"/><polygon class="cls-11" points="9.66 4.96 13.12 4.91 13.12 38.2 9.66 38.2 9.66 4.96"/><line class="cls-12" x1="1.42" y1="42.95" x2="359.98" y2="42.95"/><polygon class="cls-13" points="5.02 47.66 1.46 44.2 359.98 44.2 356.55 47.66 5.02 47.66"/><polygon class="cls-14" points="5.08 402.16 1.42 402.16 1.46 44.2 5.13 47.66 5.08 402.16"/><polygon class="cls-15" points="356.57 47.66 359.98 44.2 359.98 402.16 356.56 398.46 356.57 47.66"/><rect class="cls-16" x="5.32" y="90.97" width="351.24" height="1.68"/><polygon class="cls-17" points="356.55 398.46 359.99 402.16 1.42 402.16 5.06 398.46 356.55 398.46"/><rect class="cls-18" x="7.55" y="98.11" width="324.01" height="415.38"/><polygon class="cls-19" points="353.05 393.88 356.56 398.32 5.06 398.46 8.49 393.88 353.05 393.88"/><polygon class="cls-20" points="8.79 393.88 5.06 398.46 5.36 95.6 8.78 99.02 8.79 393.88"/><polygon class="cls-21" points="8.78 99.01 5.32 95.59 356.61 95.59 353.05 99.01 8.78 99.01"/><polygon class="cls-22" points="353.05 99.01 356.61 95.59 356.56 398.32 353.05 393.88 353.05 99.01"/><rect class="cls-23" x="170.11" y="4.95" width="3.45" height="33.29"/><polygon class="cls-24" points="166.65 5 170.11 4.96 170.11 38.25 166.65 38.25 166.65 5"/><polygon class="cls-25" points="351.22 49.85 354.78 49.85 354.76 85.58 351.22 82.13 351.22 49.85"/><polygon class="cls-26" points="351.22 82.19 354.78 85.65 6.95 85.65 10.38 82.19 351.22 82.19"/><polygon class="cls-27" points="10.37 82.19 6.96 85.65 6.96 49.84 10.38 53.26 10.37 82.19"/><polygon class="cls-28" points="10.38 53.24 6.92 49.82 354.78 49.82 351.22 53.25 10.38 53.24"/><rect class="cls-29" x="10.38" y="53.27" width="340.84" height="28.89"/><rect class="cls-30" x="25.9" y="113.25" width="311.9" height="267.41"/><polygon class="cls-31" points="312.24 377.31 315.84 380.66 22.89 380.66 26.35 377.31 312.24 377.31"/><polygon class="cls-32" points="312.24 112.24 315.84 112.24 315.84 380.66 312.25 377.31 312.24 112.24"/><polygon class="cls-33" points="26.35 377.31 22.89 380.66 22.89 112.24 26.36 115.55 26.35 377.31"/><polygon class="cls-34" points="26.38 115.55 22.88 112.24 315.84 112.24 312.24 115.56 26.38 115.55"/><rect class="cls-35" x="31.94" y="124.64" width="272.39" height="3.45"/><polygon class="cls-36" points="307.79 121.19 304.33 124.64 31.94 124.64 31.94 121.19 307.79 121.19"/><rect class="cls-37" x="31.94" y="371.77" width="275.24" height="3.45"/><rect class="cls-38" x="31.94" y="368.32" width="275.24" height="3.45"/><rect class="cls-39" x="35.4" y="124.64" width="3.45" height="242.8"/><polygon class="cls-40" points="31.94 121.33 35.4 124.64 35.4 368.32 31.94 371.77 31.94 121.33"/><polygon class="cls-41" points="300.88 128.1 304.33 124.64 304.33 368.32 300.88 368.32 300.88 128.1"/><polygon class="cls-42" points="307.79 371.7 304.33 368.39 304.33 124.64 307.79 121.19 307.79 371.7"/><rect class="cls-43" x="316.31" y="112.75" width="21.99" height="267.47"/><path class="cls-44" d="M337.8,113.25V379.72h-21V113.25h21m1-1h-23V380.72h23V112.25Z"/></g></g></svg>