<?xml version="1.0" encoding="UTF-8"?><svg id="Layer_1" xmlns="http://www.w3.org/2000/svg" xmlns:xlink="http://www.w3.org/1999/xlink" viewBox="0 0 251.98 35.83"><defs><style>.cls-1{fill:url(#linear-gradient);}.cls-2{fill:#e5e5e5;}.cls-3{fill:url(#linear-gradient-3);}.cls-4{fill:url(#linear-gradient-4);}.cls-5{fill:url(#linear-gradient-2);}</style><linearGradient id="linear-gradient" x1="126" y1="172.39" x2="126" y2="-36.42" gradientUnits="userSpaceOnUse"><stop offset=".81" stop-color="#e5e5e5"/><stop offset=".83" stop-color="#fff"/></linearGradient><linearGradient id="linear-gradient-2" x1="3018.8" y1="2183.04" x2="3018.8" y2="1967.85" gradientTransform="translate(-2005.38 3036.67) rotate(-90)" xlink:href="#linear-gradient"/><linearGradient id="linear-gradient-3" x1="-1902.79" y1="2993.14" x2="-1902.79" y2="2786.07" gradientTransform="translate(3074.17 1920.7) rotate(90)" gradientUnits="userSpaceOnUse"><stop offset=".81" stop-color="#e5e5e5"/><stop offset=".83" stop-color="#000"/></linearGradient><linearGradient id="linear-gradient-4" x1="1416.63" y1="4446.45" x2="1416.63" y2="4239.38" gradientTransform="translate(1542.63 4311.32) rotate(-180)" gradientUnits="userSpaceOnUse"><stop offset=".81" stop-color="#e5e5e5"/><stop offset=".83" stop-color="#000"/></linearGradient></defs><rect class="cls-2" x="3.56" y="3.45" width="245" height="28.96"/><polygon class="cls-1" points="3.57 3.45 .01 0 251.98 0 248.55 3.45 3.57 3.45"/><polygon class="cls-5" points="3.56 35.74 0 35.74 .01 0 3.56 3.45 3.56 35.74"/><polygon class="cls-3" points="248.56 3.45 251.98 0 251.98 35.81 248.56 32.39 248.56 3.45"/><polygon class="cls-4" points="248.53 32.41 251.98 35.83 0 35.83 3.56 32.4 248.53 32.41"/></svg>