<?xml version="1.0" encoding="UTF-8"?><svg id="Layer_1" xmlns="http://www.w3.org/2000/svg" xmlns:xlink="http://www.w3.org/1999/xlink" viewBox="0 0 127.43 37.83"><defs><style>.cls-1{fill:url(#linear-gradient);}.cls-2{fill:#80a9ce;}.cls-3{fill:url(#linear-gradient-3);}.cls-4{fill:url(#linear-gradient-4);}.cls-5{fill:url(#linear-gradient-2);}</style><linearGradient id="linear-gradient" x1="63.7" y1="173.48" x2="63.7" y2="-35.34" gradientUnits="userSpaceOnUse"><stop offset=".81" stop-color="#80a9ce"/><stop offset=".83" stop-color="#fff"/></linearGradient><linearGradient id="linear-gradient-2" x1="3318.41" y1="2051.72" x2="3318.41" y2="1836.53" gradientTransform="translate(-1873.06 3337.37) rotate(-90)" xlink:href="#linear-gradient"/><linearGradient id="linear-gradient-3" x1="-1769.38" y1="3419.43" x2="-1769.38" y2="3212.36" gradientTransform="translate(3374.87 1788.38) rotate(90)" gradientUnits="userSpaceOnUse"><stop offset=".81" stop-color="#80a9ce"/><stop offset=".83" stop-color="#000"/></linearGradient><linearGradient id="linear-gradient-4" x1="1911.93" y1="4613.75" x2="1911.93" y2="4406.67" gradientTransform="translate(1975.64 4479.7) rotate(-180)" gradientUnits="userSpaceOnUse"><stop offset=".81" stop-color="#80a9ce"/><stop offset=".83" stop-color="#000"/></linearGradient></defs><g><rect class="cls-2" x="1" y="4.54" width="121.97" height="28.96"/><polygon class="cls-1" points="4.56 4.54 1 1.09 126.4 1.09 122.97 4.54 4.56 4.54"/><polygon class="cls-5" points="4.56 36.83 1 36.83 1.01 1.09 4.56 4.54 4.56 36.83"/><polygon class="cls-3" points="122.97 4.54 126.39 1.09 126.39 36.9 122.97 33.48 122.97 4.54"/><polygon class="cls-4" points="122.97 33.5 126.43 36.91 1 36.91 4.56 33.49 122.97 33.5"/></g><path d="M126.43,1V36.83H1V1H126.43m1-1H0V37.83H127.43V0h0Z"/></svg>