<?xml version="1.0" encoding="UTF-8"?><svg id="Layer_1" xmlns="http://www.w3.org/2000/svg" xmlns:xlink="http://www.w3.org/1999/xlink" viewBox="0 0 37.96 37.83"><defs><style>.cls-1{fill:url(#linear-gradient);}.cls-2{fill:#e5e5e5;}.cls-3{fill:url(#linear-gradient-3);}.cls-4{fill:url(#linear-gradient-4);}.cls-5{fill:url(#linear-gradient-2);}</style><linearGradient id="linear-gradient" x1="18.97" y1="173.39" x2="18.97" y2="-35.42" gradientUnits="userSpaceOnUse"><stop offset=".81" stop-color="#e5e5e5"/><stop offset=".83" stop-color="#fff"/></linearGradient><linearGradient id="linear-gradient-2" x1="3321.08" y1="2143.78" x2="3321.08" y2="1928.59" gradientTransform="translate(-1965.13 3339.95) rotate(-90)" xlink:href="#linear-gradient"/><linearGradient id="linear-gradient-3" x1="-1861.54" y1="3511.47" x2="-1861.54" y2="3304.39" gradientTransform="translate(3377.44 1880.45) rotate(90)" gradientUnits="userSpaceOnUse"><stop offset=".81" stop-color="#e5e5e5"/><stop offset=".83" stop-color="#000"/></linearGradient><linearGradient id="linear-gradient-4" x1="1867.18" y1="4708.48" x2="1867.18" y2="4501.4" gradientTransform="translate(1886.15 4574.35) rotate(-180)" gradientUnits="userSpaceOnUse"><stop offset=".81" stop-color="#e5e5e5"/><stop offset=".83" stop-color="#000"/></linearGradient></defs><g><rect class="cls-2" x="4.55" y="4.45" width="28.96" height="28.96"/><polygon class="cls-1" points="4.56 4.45 1 1 36.93 1 33.5 4.45 4.56 4.45"/><polygon class="cls-5" points="4.55 36.74 .99 36.74 1 1 4.55 4.45 4.55 36.74"/><polygon class="cls-3" points="33.51 4.45 36.93 1 36.93 36.81 33.5 33.39 33.51 4.45"/><polygon class="cls-4" points="33.51 33.41 36.96 36.83 .99 36.83 4.55 33.4 33.51 33.41"/></g><path d="M36.96,1V36.83H1V1H36.96m1-1H0V37.83H37.96V0h0Z"/><polygon points="12.66 11.61 25.39 18.65 12.66 25.68 12.66 11.61"/></svg>