<svg xmlns="http://www.w3.org/2000/svg" xmlns:xlink="http://www.w3.org/1999/xlink" viewBox="0 0 915.58 915.41"><defs><style>.cls-1{isolation:isolate;}.cls-2{fill:#a9a9a9;}.cls-3{fill:#e5e5e5;}.cls-4{fill:url(#linear-gradient);}.cls-5{fill:url(#linear-gradient-2);}.cls-6{fill:url(#linear-gradient-3);}.cls-7{fill:url(#linear-gradient-4);}.cls-8{fill:url(#linear-gradient-5);}.cls-9{fill:url(#linear-gradient-6);}.cls-10{fill:url(#linear-gradient-7);}.cls-11{fill:url(#linear-gradient-8);}.cls-12{fill:url(#linear-gradient-9);}.cls-13{fill:url(#linear-gradient-10);}.cls-14{fill:url(#linear-gradient-11);}.cls-15{fill:url(#linear-gradient-12);}.cls-16,.cls-18,.cls-24{fill:none;}.cls-16,.cls-18{stroke:#000;stroke-miterlimit:10;}.cls-16{stroke-width:2.5px;}.cls-17{mix-blend-mode:multiply;}.cls-18{stroke-width:1.5px;}.cls-19{fill:url(#linear-gradient-13);}.cls-20{fill:url(#linear-gradient-14);}.cls-21{fill:url(#linear-gradient-15);}.cls-22{fill:url(#linear-gradient-16);}.cls-23{fill:url(#linear-gradient-17);}.cls-25{fill:url(#linear-gradient-18);}.cls-26{fill:url(#linear-gradient-19);}.cls-27{fill:url(#linear-gradient-20);}.cls-28{fill:#bdbdbd;}.cls-29{fill:#333;}.cls-30{fill:url(#linear-gradient-21);}.cls-31{fill:url(#linear-gradient-22);}.cls-32{fill:url(#linear-gradient-23);}.cls-33{fill:url(#linear-gradient-24);}.cls-34{fill:#595959;}.cls-35{fill:url(#linear-gradient-25);}.cls-36{fill:url(#linear-gradient-26);}.cls-37{fill:url(#linear-gradient-27);}.cls-38{fill:url(#linear-gradient-28);}.cls-39{fill:url(#linear-gradient-29);}</style><linearGradient id="linear-gradient" x1="457.82" y1="173.89" x2="457.82" y2="-34.92" gradientUnits="userSpaceOnUse"><stop offset="0.81" stop-color="#a9a9a9"/><stop offset="0.83" stop-color="#fff"/></linearGradient><linearGradient id="linear-gradient-2" x1="9855.79" y1="597.58" x2="9855.79" y2="388.77" gradientTransform="matrix(0, -1, 1, 0, -423.69, 9877.39)" xlink:href="#linear-gradient"/><linearGradient id="linear-gradient-3" x1="7863.37" y1="10787.71" x2="7863.37" y2="10578.89" gradientTransform="translate(8321.18 10657.02) rotate(180)" gradientUnits="userSpaceOnUse"><stop offset="0.81" stop-color="#a9a9a9"/><stop offset="0.83"/></linearGradient><linearGradient id="linear-gradient-4" x1="-1532.06" y1="9482.78" x2="-1532.06" y2="9273.97" gradientTransform="translate(10224.52 1553.62) rotate(90)" xlink:href="#linear-gradient-3"/><linearGradient id="linear-gradient-5" x1="9855.83" y1="1460.3" x2="9855.83" y2="1251.48" gradientTransform="matrix(0, -1, 1, 0, -423.69, 9877.39)" xlink:href="#linear-gradient"/><linearGradient id="linear-gradient-6" x1="-1532.06" y1="9532.69" x2="-1532.06" y2="9323.88" gradientTransform="translate(10224.52 1553.62) rotate(90)" xlink:href="#linear-gradient-3"/><linearGradient id="linear-gradient-7" x1="9855.83" y1="1499.04" x2="9855.83" y2="1290.22" gradientTransform="matrix(0, -1, 1, 0, -423.69, 9877.39)" xlink:href="#linear-gradient"/><linearGradient id="linear-gradient-8" x1="-1532.06" y1="9493.95" x2="-1532.06" y2="9285.14" gradientTransform="translate(10224.52 1553.62) rotate(90)" xlink:href="#linear-gradient-3"/><linearGradient id="linear-gradient-9" x1="9855.83" y1="2005.05" x2="9855.83" y2="1796.24" gradientTransform="matrix(0, -1, 1, 0, -1819.46, 9877.39)" xlink:href="#linear-gradient"/><linearGradient id="linear-gradient-10" x1="-1532.06" y1="8987.94" x2="-1532.06" y2="8779.13" gradientTransform="translate(8828.75 1553.62) rotate(90)" xlink:href="#linear-gradient-3"/><linearGradient id="linear-gradient-11" x1="9855.83" y1="2645.57" x2="9855.83" y2="2436.76" gradientTransform="matrix(0, -1, 1, 0, -1819.46, 9877.39)" xlink:href="#linear-gradient"/><linearGradient id="linear-gradient-12" x1="-1532.06" y1="8347.42" x2="-1532.06" y2="8138.61" gradientTransform="translate(8828.75 1553.62) rotate(90)" xlink:href="#linear-gradient-3"/><linearGradient id="linear-gradient-13" x1="457.81" y1="216.59" x2="457.81" y2="7.78" gradientUnits="userSpaceOnUse"><stop offset="0.81" stop-color="#e5e5e5"/><stop offset="0.83" stop-color="#fff"/></linearGradient><linearGradient id="linear-gradient-14" x1="9075.75" y1="1460.58" x2="9075.75" y2="1243.31" gradientTransform="translate(-1279.66 9554.81) rotate(-90)" xlink:href="#linear-gradient-13"/><linearGradient id="linear-gradient-15" x1="-715.92" y1="8849.18" x2="-715.92" y2="8642.1" gradientTransform="translate(9592.3 1194.98) rotate(90)" gradientUnits="userSpaceOnUse"><stop offset="0.81" stop-color="#e5e5e5"/><stop offset="0.83"/></linearGradient><linearGradient id="linear-gradient-16" x1="495.09" y1="11.42" x2="495.09" y2="-128.08" gradientTransform="translate(-36.95 194.4)" gradientUnits="userSpaceOnUse"><stop offset="0.81" stop-color="#e5e5e5"/><stop offset="0.83" stop-color="#464646"/></linearGradient><linearGradient id="linear-gradient-17" x1="8328.58" y1="9360.78" x2="8328.58" y2="9153.7" gradientTransform="translate(8786.48 10103.74) rotate(180)" xlink:href="#linear-gradient-15"/><linearGradient id="linear-gradient-18" x1="9245.08" y1="9643.73" x2="9245.08" y2="9434.91" gradientTransform="translate(9702.33 10380.7) rotate(180)" gradientUnits="userSpaceOnUse"><stop offset="0.81" stop-color="#b1b1b1"/><stop offset="0.83" stop-color="#fff"/></linearGradient><linearGradient id="linear-gradient-19" x1="8683.24" y1="66.37" x2="8683.24" y2="-140.71" gradientTransform="translate(110.02 9185.72) rotate(-90)" gradientUnits="userSpaceOnUse"><stop offset="0.81" stop-color="#b1b1b1"/><stop offset="0.83"/></linearGradient><linearGradient id="linear-gradient-20" x1="-458.63" y1="-10.42" x2="-458.63" y2="-217.5" gradientTransform="translate(915.85 276.96)" xlink:href="#linear-gradient-19"/><linearGradient id="linear-gradient-21" x1="897.5" y1="269.19" x2="897.5" y2="60.12" gradientUnits="userSpaceOnUse"><stop offset="0.81" stop-color="#bdbdbd"/><stop offset="0.83" stop-color="#fff"/></linearGradient><linearGradient id="linear-gradient-22" x1="9447.8" y1="2345.56" x2="9447.8" y2="2128.81" gradientTransform="translate(-1279.66 9554.81) rotate(-90)" xlink:href="#linear-gradient-21"/><linearGradient id="linear-gradient-23" x1="-1087.97" y1="8856.47" x2="-1087.97" y2="8647.89" gradientTransform="translate(9592.3 1194.98) rotate(90)" gradientUnits="userSpaceOnUse"><stop offset="0.81" stop-color="#bdbdbd"/><stop offset="0.83"/></linearGradient><linearGradient id="linear-gradient-24" x1="7888.97" y1="10157.48" x2="7888.97" y2="9950.14" gradientTransform="translate(8786.48 10103.74) rotate(180)" xlink:href="#linear-gradient-23"/><linearGradient id="linear-gradient-25" x1="897.52" y1="1060.91" x2="897.52" y2="851.02" xlink:href="#linear-gradient-21"/><linearGradient id="linear-gradient-26" x1="8656.71" y1="2345.24" x2="8656.71" y2="2128.94" gradientTransform="translate(-1279.66 9554.81) rotate(-90)" xlink:href="#linear-gradient-21"/><linearGradient id="linear-gradient-27" x1="-296.89" y1="8856.11" x2="-296.89" y2="8647.97" xlink:href="#linear-gradient-23"/><linearGradient id="linear-gradient-28" x1="7888.95" y1="9367.02" x2="7888.95" y2="9158.87" gradientTransform="translate(8786.48 10103.74) rotate(180)" xlink:href="#linear-gradient-23"/><linearGradient id="linear-gradient-29" x1="-323.41" y1="10273.67" x2="-323.41" y2="10058.48" gradientTransform="translate(10981.99 825.89) rotate(90)" xlink:href="#linear-gradient-18"/></defs><g class="cls-1"><g id="Layer_2" data-name="Layer 2"><g id="Layer_1-2" data-name="Layer 1"><path d="M914.08,1.5V913.91H1.5V1.5H914.08m1.5-1.5H0V915.41H915.58V0Z"/><rect class="cls-2" x="1.58" y="1.5" width="912.55" height="41.77"/><rect class="cls-3" x="1.58" y="44.62" width="912.2" height="869.3"/><polygon class="cls-4" points="1.58 4.96 1.5 1.5 914.13 1.5 910.68 4.96 1.58 4.96"/><polygon class="cls-5" points="4.96 41.7 1.5 41.7 1.5 1.5 4.96 4.96 4.96 41.7"/><polygon class="cls-6" points="914.13 38.25 914.13 41.7 1.5 41.7 5.03 38.25 914.13 38.25"/><polygon class="cls-7" points="910.68 4.96 914.13 1.46 914.13 41.66 910.68 38.2 910.68 4.96"/><rect class="cls-8" x="864.22" y="4.91" width="3.45" height="33.29"/><polygon class="cls-9" points="860.76 4.96 864.22 4.91 864.22 38.2 860.76 38.2 860.76 4.96"/><rect class="cls-10" x="902.96" y="4.91" width="3.45" height="33.29"/><polygon class="cls-11" points="899.5 4.96 902.96 4.91 902.96 38.2 899.5 38.2 899.5 4.96"/><rect class="cls-12" x="13.2" y="4.91" width="3.45" height="33.29"/><polygon class="cls-13" points="9.74 4.96 13.2 4.91 13.2 38.2 9.74 38.2 9.74 4.96"/><rect class="cls-14" x="653.72" y="4.91" width="3.45" height="33.29"/><polygon class="cls-15" points="650.26 4.96 653.72 4.91 653.72 38.2 650.26 38.2 650.26 4.96"/><line class="cls-16" x1="1.5" y1="42.95" x2="914.3" y2="42.95"/><g class="cls-17"><rect x="880.56" y="18.2" width="7.11" height="7.11"/><rect class="cls-18" x="880.56" y="18.2" width="7.11" height="7.11"/></g><rect class="cls-2" x="879.56" y="17.2" width="7.11" height="7.11"/><rect class="cls-18" x="879.56" y="17.2" width="7.11" height="7.11"/><polygon class="cls-19" points="5.1 47.66 1.54 44.2 914.08 44.2 910.65 47.66 5.1 47.66"/><polygon class="cls-20" points="5.14 913.91 1.58 913.91 1.54 44.2 5.1 47.66 5.14 913.91"/><polygon class="cls-21" points="910.67 47.66 914.08 44.2 914.08 913.91 910.66 910.21 910.67 47.66"/><rect class="cls-22" x="5.4" y="90.66" width="905.47" height="2.31"/><polygon class="cls-23" points="910.85 910.5 914.3 913.91 1.5 913.91 5.14 910.49 910.85 910.5"/><rect class="cls-24" x="7.63" y="98.11" width="324.01" height="415.38"/><polygon class="cls-25" points="905.5 905.91 909.06 909.36 5.43 909.36 8.87 905.91 905.5 905.91"/><polygon class="cls-26" points="8.85 905.91 5.43 909.36 5.43 95.6 8.86 99.02 8.85 905.91"/><polygon class="cls-27" points="8.86 99.01 5.4 95.59 909.03 95.59 905.47 99.01 8.86 99.01"/><rect class="cls-28" x="886.46" y="96.09" width="22.07" height="812.78"/><path class="cls-29" d="M908,96.59V908.36H887V96.59H908m1-1H886V909.36H909V95.59Z"/><polygon class="cls-30" points="890.54 100.05 886.96 96.59 908.03 96.59 904.58 100.05 890.54 100.05"/><polygon class="cls-31" points="890.54 117.43 886.96 117.43 886.97 96.59 890.54 100.05 890.54 117.43"/><polygon class="cls-32" points="904.59 100.05 908.03 96.59 908.03 117.42 904.58 114 904.59 100.05"/><polygon class="cls-33" points="904.59 114.01 908.07 117.43 886.96 117.43 890.54 114 904.59 114.01"/><rect class="cls-28" x="890.54" y="100.03" width="14.04" height="13.95"/><polygon class="cls-34" points="893.72 109.91 897.56 102.45 901.4 109.91 893.72 109.91"/><polygon class="cls-35" points="890.58 891.11 887 887.63 908.04 887.63 904.59 891.11 890.58 891.11"/><polygon class="cls-36" points="890.58 908.56 887 908.56 887.01 887.63 890.58 891.11 890.58 908.56"/><polygon class="cls-37" points="904.6 891.11 908.03 887.63 908.03 908.55 904.59 905.12 904.6 891.11"/><polygon class="cls-38" points="904.59 905.12 908.07 908.56 887 908.56 890.58 905.12 904.59 905.12"/><rect class="cls-28" x="890.58" y="891.09" width="14.01" height="14.01"/><polygon class="cls-34" points="901.42 894.36 897.58 901.86 893.75 894.36 901.42 894.36"/><polygon class="cls-39" points="882.42 99.01 885.98 95.59 885.96 909.36 882.42 905.91 882.42 99.01"/></g></g></g></svg>