<?xml version="1.0" encoding="UTF-8"?><svg id="Layer_1" xmlns="http://www.w3.org/2000/svg" xmlns:xlink="http://www.w3.org/1999/xlink" viewBox="0 0 124.71 37.83"><defs><style>.cls-1{fill:url(#linear-gradient);}.cls-2{fill:#d8b2b6;}.cls-3{fill:url(#linear-gradient-3);}.cls-4{fill:url(#linear-gradient-4);}.cls-5{fill:url(#linear-gradient-2);}</style><linearGradient id="linear-gradient" x1="68.99" y1="173.39" x2="68.99" y2="-35.42" gradientTransform="translate(-6.63)" gradientUnits="userSpaceOnUse"><stop offset=".81" stop-color="#d8b2b6"/><stop offset=".83" stop-color="#fff"/></linearGradient><linearGradient id="linear-gradient-2" x1="3364.45" y1="2107.06" x2="3364.45" y2="1891.87" gradientTransform="translate(-1928.39 3383.32) rotate(-90)" xlink:href="#linear-gradient"/><linearGradient id="linear-gradient-3" x1="-1818.17" y1="3461.44" x2="-1818.17" y2="3254.37" gradientTransform="translate(3414.18 1837.07) rotate(90)" gradientUnits="userSpaceOnUse"><stop offset=".81" stop-color="#d8b2b6"/><stop offset=".83" stop-color="#000"/></linearGradient><linearGradient id="linear-gradient-4" x1="1903.9" y1="4708.48" x2="1903.9" y2="4501.4" gradientTransform="translate(1966.27 4574.35) rotate(-180)" gradientUnits="userSpaceOnUse"><stop offset=".81" stop-color="#d8b2b6"/><stop offset=".83" stop-color="#000"/></linearGradient></defs><g><rect class="cls-2" x="4.57" y="4.45" width="115.7" height="28.96"/><polygon class="cls-1" points="4.57 4.45 1.01 1 123.7 1 120.27 4.45 4.57 4.45"/><polygon class="cls-5" points="4.57 36.74 1.01 36.74 1.03 1 4.57 4.45 4.57 36.74"/><polygon class="cls-3" points="120.28 4.45 123.7 1 123.7 36.81 120.27 33.39 120.28 4.45"/><polygon class="cls-4" points="120.27 33.41 123.73 36.83 1.01 36.83 4.57 33.4 120.27 33.41"/></g><path d="M123.71,1V36.83H1V1H123.71m1-1H0V37.83H124.71V0h0Z"/></svg>