<?xml version="1.0" encoding="UTF-8"?><svg id="Layer_1" xmlns="http://www.w3.org/2000/svg" xmlns:xlink="http://www.w3.org/1999/xlink" viewBox="0 0 550.72 35.83"><defs><style>.cls-1{fill:url(#linear-gradient);}.cls-2{fill:#fff;}.cls-3{fill:url(#linear-gradient-3);}.cls-4{fill:url(#linear-gradient-4);}.cls-5{fill:url(#linear-gradient-2);}</style><linearGradient id="linear-gradient" x1="-1248.58" y1="4817.51" x2="-1248.58" y2="4602.32" gradientTransform="translate(5190.57 1266.54) rotate(90)" gradientUnits="userSpaceOnUse"><stop offset=".81" stop-color="#e5e5e5"/><stop offset=".83" stop-color="#fff"/></linearGradient><linearGradient id="linear-gradient-2" x1="3194.89" y1="5166.49" x2="3194.89" y2="4957.68" gradientTransform="translate(3470.26 5029.93) rotate(-180)" xlink:href="#linear-gradient"/><linearGradient id="linear-gradient-3" x1="-640.49" y1="-106.01" x2="-640.49" y2="-313.08" gradientTransform="translate(915.85 276.96)" gradientUnits="userSpaceOnUse"><stop offset=".81" stop-color="#e5e5e5"/><stop offset=".83" stop-color="#000"/></linearGradient><linearGradient id="linear-gradient-4" x1="3376.41" y1="501.47" x2="3376.41" y2="294.56" gradientTransform="translate(-330.62 3394.3) rotate(-90)" gradientUnits="userSpaceOnUse"><stop offset=".81" stop-color="#e5e5e5"/><stop offset=".83" stop-color="#000"/></linearGradient></defs><g><polygon class="cls-1" points="547.16 .09 550.72 .09 550.7 35.83 547.16 32.37 547.16 .09"/><polygon class="cls-5" points="547.14 32.37 550.7 35.83 .03 35.83 3.46 32.37 547.14 32.37"/><polygon class="cls-3" points="3.45 3.42 0 0 550.72 0 547.16 3.43 3.45 3.42"/><rect class="cls-2" x="3.46" y="3.45" width="543.7" height="28.89"/></g><polygon class="cls-4" points="3.44 32.33 .03 35.78 .03 0 3.45 3.42 3.44 32.33"/></svg>