<?xml version="1.0" encoding="UTF-8"?><svg id="Layer_1" xmlns="http://www.w3.org/2000/svg" xmlns:xlink="http://www.w3.org/1999/xlink" viewBox="0 0 154.61 46.45"><defs><style>.cls-1,.cls-2{stroke:#000;stroke-miterlimit:10;stroke-width:.75px;}.cls-3{fill:url(#linear-gradient);}.cls-4,.cls-2{fill:#89a9cc;}.cls-5{fill:url(#linear-gradient-3);}.cls-6{fill:url(#linear-gradient-4);}.cls-7{fill:url(#linear-gradient-2);}</style><linearGradient id="linear-gradient" x1="77.31" y1="172.39" x2="77.31" y2="-36.42" gradientUnits="userSpaceOnUse"><stop offset=".81" stop-color="#89a9cc"/><stop offset=".83" stop-color="#fff"/></linearGradient><linearGradient id="linear-gradient-2" x1="3080.34" y1="2126.3" x2="3080.34" y2="1908.79" gradientTransform="translate(-1946.73 3103.57) rotate(-90)" xlink:href="#linear-gradient"/><linearGradient id="linear-gradient-3" x1="-1838.82" y1="3160.06" x2="-1838.82" y2="2949.77" gradientTransform="translate(3141.06 1862.04) rotate(90)" gradientUnits="userSpaceOnUse"><stop offset=".81" stop-color="#89a9cc"/><stop offset=".83" stop-color="#000"/></linearGradient><linearGradient id="linear-gradient-4" x1="-8640.65" y1="4008.89" x2="-8640.65" y2="3798.18" gradientTransform="translate(-8563.34 3881.39) rotate(-180)" gradientUnits="userSpaceOnUse"><stop offset=".81" stop-color="#89a9cc"/><stop offset=".83" stop-color="#000"/></linearGradient></defs><rect class="cls-4" width="154.61" height="46.45"/><polygon class="cls-3" points="3.6 3.45 0 0 154.61 0 151.18 3.45 3.6 3.45"/><polygon class="cls-7" points="3.6 46.45 0 46.45 0 0 3.6 3.45 3.6 46.45"/><polygon class="cls-5" points="151.14 3.45 154.61 0 154.61 46.45 151.13 42.97 151.14 3.45"/><polygon class="cls-6" points="151.16 42.98 154.61 46.45 0 46.45 3.6 42.97 151.16 42.98"/><g><g><rect class="cls-1" x="125.9" y="13.12" width="17.47" height="3.9"/><rect class="cls-1" x="125.9" y="19.96" width="17.47" height="14.08"/></g><g><rect class="cls-2" x="124.93" y="11.45" width="17.47" height="3.9"/><rect class="cls-2" x="124.93" y="18.29" width="17.47" height="14.08"/></g></g></svg>