<?xml version="1.0" encoding="utf-8"?>
<!-- Generator: Adobe Illustrator 24.2.3, SVG Export Plug-In . SVG Version: 6.00 Build 0)  -->
<svg version="1.1" id="Layer_1" xmlns="http://www.w3.org/2000/svg" xmlns:xlink="http://www.w3.org/1999/xlink" x="0px" y="0px"
	 viewBox="0 0 466.9 90.4" style="enable-background:new 0 0 466.9 90.4;" xml:space="preserve">
<style type="text/css">
	.st0{fill:#A8A9A9;}
	.st1{fill:url(#SVGID_1_);}
	.st2{fill:url(#SVGID_2_);}
	.st3{fill:url(#SVGID_3_);}
	.st4{fill:url(#SVGID_4_);}
	.st5{fill:none;stroke:#000000;stroke-width:2.5;stroke-miterlimit:10;}
	.st6{fill:url(#SVGID_5_);}
	.st7{fill:url(#SVGID_6_);}
	.st8{fill:url(#SVGID_7_);}
	.st9{fill:url(#SVGID_8_);}
</style>
<path d="M465.4,1.5v86H1.5v-86H465.4 M466.9,0H0v88.9h466.9V0L466.9,0z"/>
<rect x="1.5" y="1.5" class="st0" width="463.9" height="38.5"/>
<linearGradient id="SVGID_1_" gradientUnits="userSpaceOnUse" x1="233.42" y1="-75.76" x2="233.42" y2="125.63" gradientTransform="matrix(1 0 0 -1 0 92)">
	<stop  offset="0.81" style="stop-color:#A9A9A9"/>
	<stop  offset="0.83" style="stop-color:#FFFFFF"/>
</linearGradient>
<polygon class="st1" points="1.5,4.8 1.5,1.5 465.3,1.5 462,4.8 "/>
<linearGradient id="SVGID_2_" gradientUnits="userSpaceOnUse" x1="2363.5049" y1="-1264.38" x2="2363.5049" y2="-1062.99" gradientTransform="matrix(6.123234e-17 -1 -1 -6.123234e-17 -1096.62 2384.25)">
	<stop  offset="0.81" style="stop-color:#A9A9A9"/>
	<stop  offset="0.83" style="stop-color:#FFFFFF"/>
</linearGradient>
<polygon class="st2" points="4.8,40 1.5,40 1.5,1.5 4.8,4.8 "/>
<linearGradient id="SVGID_3_" gradientUnits="userSpaceOnUse" x1="-170.31" y1="-3963.0801" x2="-170.31" y2="-3761.6802" gradientTransform="matrix(-1 0 0 1 63.12 3836.8101)">
	<stop  offset="0.81" style="stop-color:#A9A9A9"/>
	<stop  offset="0.83" style="stop-color:#000000"/>
</linearGradient>
<polygon class="st3" points="465.4,36.7 465.4,40 1.5,40 4.9,36.7 "/>
<linearGradient id="SVGID_4_" gradientUnits="userSpaceOnUse" x1="-2297.7949" y1="-2340.29" x2="-2297.7949" y2="-2138.8999" gradientTransform="matrix(6.123234e-17 1 1 -6.123234e-17 2639.3799 2318.54)">
	<stop  offset="0.81" style="stop-color:#A9A9A9"/>
	<stop  offset="0.83" style="stop-color:#000000"/>
</linearGradient>
<polygon class="st4" points="462,4.8 465.4,1.5 465.4,40 462,36.4 "/>
<line class="st5" x1="1.5" y1="41.2" x2="465.5" y2="41.2"/>
<g>
	
		<linearGradient id="SVGID_5_" gradientUnits="userSpaceOnUse" x1="2363.425" y1="-1715.37" x2="2363.425" y2="-1513.97" gradientTransform="matrix(6.123234e-17 -1 -1 -6.123234e-17 -1096.62 2384.25)">
		<stop  offset="0.81" style="stop-color:#A9A9A9"/>
		<stop  offset="0.83" style="stop-color:#FFFFFF"/>
	</linearGradient>
	<rect x="452.5" y="4.8" class="st6" width="3.3" height="32.1"/>
	
		<linearGradient id="SVGID_6_" gradientUnits="userSpaceOnUse" x1="-2297.7151" y1="-2353.1599" x2="-2297.7151" y2="-2151.77" gradientTransform="matrix(6.123234e-17 1 1 -6.123234e-17 2639.3799 2318.54)">
		<stop  offset="0.81" style="stop-color:#A9A9A9"/>
		<stop  offset="0.83" style="stop-color:#000000"/>
	</linearGradient>
	<polygon class="st7" points="449.2,4.8 452.5,4.8 452.5,36.9 449.2,36.9 	"/>
</g>
<g>
	
		<linearGradient id="SVGID_7_" gradientUnits="userSpaceOnUse" x1="2363.5549" y1="-2673.3" x2="2363.5549" y2="-2471.8999" gradientTransform="matrix(6.123234e-17 -1 -1 -6.123234e-17 -2492.3899 2384.25)">
		<stop  offset="0.81" style="stop-color:#A9A9A9"/>
		<stop  offset="0.83" style="stop-color:#FFFFFF"/>
	</linearGradient>
	<rect x="14.6" y="4.6" class="st8" width="3.3" height="32.1"/>
	
		<linearGradient id="SVGID_8_" gradientUnits="userSpaceOnUse" x1="-2297.845" y1="-1395.23" x2="-2297.845" y2="-1193.8401" gradientTransform="matrix(6.123234e-17 1 1 -6.123234e-17 1243.6101 2318.54)">
		<stop  offset="0.81" style="stop-color:#A9A9A9"/>
		<stop  offset="0.83" style="stop-color:#000000"/>
	</linearGradient>
	<polygon class="st9" points="11.3,4.7 14.6,4.6 14.6,36.8 11.3,36.8 	"/>
</g>
</svg>
