<svg xmlns="http://www.w3.org/2000/svg" xmlns:xlink="http://www.w3.org/1999/xlink" viewBox="0 0 411.95 266.8"><defs><style>.cls-1{fill:#e5e5e5;}.cls-2{fill:url(#linear-gradient);}.cls-3{fill:url(#linear-gradient-2);}.cls-4{fill:url(#linear-gradient-3);}.cls-5{fill:url(#linear-gradient-4);}.cls-6{fill:url(#linear-gradient-5);}.cls-7{fill:url(#linear-gradient-6);}.cls-8{fill:url(#linear-gradient-7);}.cls-9{fill:url(#linear-gradient-8);}.cls-10{fill:url(#linear-gradient-9);}.cls-11{fill:url(#linear-gradient-10);}.cls-12{fill:url(#linear-gradient-11);}.cls-13{fill:url(#linear-gradient-12);}.cls-14{fill:url(#linear-gradient-13);}.cls-15{fill:url(#linear-gradient-14);}.cls-16{fill:url(#linear-gradient-15);}.cls-17{fill:url(#linear-gradient-16);}</style><linearGradient id="linear-gradient" x1="8518.65" y1="10434.71" x2="8518.65" y2="10232.18" gradientTransform="translate(8724.62 10534.25) rotate(180)" gradientUnits="userSpaceOnUse"><stop offset="0.81" stop-color="#e5e5e5"/><stop offset="0.83" stop-color="#fff"/></linearGradient><linearGradient id="linear-gradient-2" x1="-1989.64" y1="10546.78" x2="-1989.64" y2="10328.79" gradientTransform="translate(10778.75 2123.01) rotate(90)" xlink:href="#linear-gradient"/><linearGradient id="linear-gradient-3" x1="8431.42" y1="-102.25" x2="8431.42" y2="-312.02" gradientTransform="translate(275.88 8564.82) rotate(-90)" gradientUnits="userSpaceOnUse"><stop offset="0.81" stop-color="#e5e5e5"/><stop offset="0.83"/></linearGradient><linearGradient id="linear-gradient-4" x1="-1649.98" y1="-633.81" x2="-1649.98" y2="-834.65" gradientTransform="translate(1856.16 799.62)" xlink:href="#linear-gradient-3"/><linearGradient id="linear-gradient-5" x1="-418.04" y1="1760.18" x2="-418.04" y2="1551.36" gradientTransform="translate(623.94 -1575.38)" gradientUnits="userSpaceOnUse"><stop offset="0.81" stop-color="#e5e5e5"/><stop offset="0.83" stop-color="#fff"/></linearGradient><linearGradient id="linear-gradient-6" x1="6822.56" y1="8863.71" x2="6822.56" y2="8654.9" gradientTransform="translate(7029.69 8703.73) rotate(180)" gradientUnits="userSpaceOnUse"><stop offset="0.81" stop-color="#e5e5e5"/><stop offset="0.83"/></linearGradient><linearGradient id="linear-gradient-7" x1="-416.81" y1="1960.29" x2="-416.81" y2="1751.47" xlink:href="#linear-gradient-5"/><linearGradient id="linear-gradient-8" x1="6822.56" y1="8663.6" x2="6822.56" y2="8454.79" xlink:href="#linear-gradient-6"/><linearGradient id="linear-gradient-9" x1="8889.53" y1="2703.44" x2="8889.53" y2="2494.63" gradientTransform="translate(-2518.1 9000.27) rotate(-90)" xlink:href="#linear-gradient-5"/><linearGradient id="linear-gradient-10" x1="-2483.71" y1="7920.45" x2="-2483.71" y2="7711.63" gradientTransform="translate(7761.01 2594.51) rotate(90)" xlink:href="#linear-gradient-6"/><linearGradient id="linear-gradient-11" x1="-1303" y1="11246.16" x2="-1303" y2="11037.34" gradientTransform="translate(11475.07 1413.8) rotate(90)" xlink:href="#linear-gradient-5"/><linearGradient id="linear-gradient-12" x1="7708.78" y1="-622.27" x2="7708.78" y2="-831.08" gradientTransform="translate(1195.96 7819.55) rotate(-90)" xlink:href="#linear-gradient-6"/><linearGradient id="linear-gradient-13" x1="-416.81" y1="1801.83" x2="-416.81" y2="1593.01" xlink:href="#linear-gradient-5"/><linearGradient id="linear-gradient-14" x1="6822.56" y1="8822.06" x2="6822.56" y2="8613.25" xlink:href="#linear-gradient-6"/><linearGradient id="linear-gradient-15" x1="-416.81" y1="1842.71" x2="-416.81" y2="1633.89" xlink:href="#linear-gradient-5"/><linearGradient id="linear-gradient-16" x1="6822.56" y1="8781.18" x2="6822.56" y2="8572.37" xlink:href="#linear-gradient-6"/></defs><g id="Layer_2" data-name="Layer 2"><g id="Layer_1-2" data-name="Layer 1"><rect class="cls-1" x="3.46" y="3.32" width="404.87" height="260.07"/><polygon class="cls-2" points="408.34 263.39 411.95 266.75 0 266.75 3.46 263.39 408.34 263.39"/><polygon class="cls-3" points="408.33 0 411.93 0 411.93 266.75 408.34 263.39 408.33 0"/><polygon class="cls-4" points="3.91 263.44 0.45 266.8 0.45 0 3.92 3.31 3.91 263.44"/><polygon class="cls-5" points="3.93 3.31 0.43 0 411.93 0 408.33 3.32 3.93 3.31"/><rect class="cls-6" x="9.5" y="12.41" width="392.8" height="3.45"/><polygon class="cls-7" points="404.75 8.95 402.31 12.4 9.5 12.4 9.5 8.95 404.75 8.95"/><rect class="cls-8" x="9.5" y="212.52" width="395.25" height="3.45"/><rect class="cls-9" x="9.5" y="209.06" width="395.25" height="3.45"/><rect class="cls-10" x="12.96" y="12.41" width="3.45" height="196.66"/><polygon class="cls-11" points="9.5 9.09 12.96 12.4 12.96 209.06 9.5 212.51 9.5 9.09"/><polygon class="cls-12" points="397.85 15.86 401.3 12.4 401.3 209.19 397.85 209.19 397.85 15.86"/><polygon class="cls-13" points="404.75 212.44 401.3 209.13 401.3 12.4 404.75 9.09 404.75 212.44"/><rect class="cls-14" x="12.96" y="54.06" width="388.34" height="3.45"/><rect class="cls-15" x="12.96" y="50.6" width="388.34" height="3.45"/><rect class="cls-16" x="12.96" y="94.94" width="388.34" height="3.45"/><rect class="cls-17" x="12.96" y="91.48" width="388.34" height="3.45"/></g></g></svg>