<?xml version="1.0" encoding="UTF-8"?><svg id="Layer_1" xmlns="http://www.w3.org/2000/svg" xmlns:xlink="http://www.w3.org/1999/xlink" viewBox="0 0 35.98 35.83"><defs><style>.cls-1{fill:url(#linear-gradient);}.cls-2{fill:#e5e5e5;}.cls-3{fill:none;stroke:#000;stroke-miterlimit:10;stroke-width:2.5px;}.cls-4{fill:url(#linear-gradient-3);}.cls-5{fill:url(#linear-gradient-4);}.cls-6{fill:url(#linear-gradient-2);}</style><linearGradient id="linear-gradient" x1="17.98" y1="172.39" x2="17.98" y2="-36.42" gradientUnits="userSpaceOnUse"><stop offset=".81" stop-color="#e5e5e5"/><stop offset=".83" stop-color="#fff"/></linearGradient><linearGradient id="linear-gradient-2" x1="3488.15" y1="2155.34" x2="3488.15" y2="1940.15" gradientTransform="translate(-1977.68 3506.02) rotate(-90)" xlink:href="#linear-gradient"/><linearGradient id="linear-gradient-3" x1="-1875.09" y1="3678.53" x2="-1875.09" y2="3471.45" gradientTransform="translate(3543.51 1892.99) rotate(90)" gradientUnits="userSpaceOnUse"><stop offset=".81" stop-color="#e5e5e5"/><stop offset=".83" stop-color="#000"/></linearGradient><linearGradient id="linear-gradient-4" x1="2021.69" y1="4888.1" x2="2021.69" y2="4681.02" gradientTransform="translate(2039.67 4752.96) rotate(-180)" gradientUnits="userSpaceOnUse"><stop offset=".81" stop-color="#e5e5e5"/><stop offset=".83" stop-color="#000"/></linearGradient></defs><g><rect class="cls-2" x="3.56" y="3.45" width="28.96" height="28.96"/><polygon class="cls-1" points="3.57 3.45 .01 0 35.95 0 32.52 3.45 3.57 3.45"/><polygon class="cls-6" points="3.56 35.74 0 35.74 .01 0 3.56 3.45 3.56 35.74"/><polygon class="cls-4" points="32.52 3.45 35.94 0 35.94 35.81 32.52 32.39 32.52 3.45"/><polygon class="cls-5" points="32.52 32.41 35.98 35.83 0 35.83 3.56 32.4 32.52 32.41"/></g><polyline class="cls-3" points="9.45 18.36 14.66 22.73 26.62 11.38"/></svg>