<?xml version="1.0" encoding="UTF-8"?><svg id="Layer_1" xmlns="http://www.w3.org/2000/svg" xmlns:xlink="http://www.w3.org/1999/xlink" viewBox="0 0 35.95 35.8"><defs><style>.cls-1{fill:url(#linear-gradient);}.cls-2{fill:#e5e5e5;}.cls-3{fill:none;stroke:#000;stroke-miterlimit:10;stroke-width:2.5px;}.cls-4{fill:url(#linear-gradient-3);}.cls-5{fill:url(#linear-gradient-4);}.cls-6{fill:url(#linear-gradient-2);}</style><linearGradient id="linear-gradient" x1="17.96" y1="172.25" x2="17.96" y2="-36.39" gradientUnits="userSpaceOnUse"><stop offset=".81" stop-color="#e5e5e5"/><stop offset=".83" stop-color="#fff"/></linearGradient><linearGradient id="linear-gradient-2" x1="3021.7" y1="2178.81" x2="3021.7" y2="1963.8" gradientTransform="translate(-2001.31 3039.56) rotate(-90)" xlink:href="#linear-gradient"/><linearGradient id="linear-gradient-3" x1="-1898.73" y1="3211.96" x2="-1898.73" y2="3005.05" gradientTransform="translate(3077.05 1916.62) rotate(90)" gradientUnits="userSpaceOnUse"><stop offset=".81" stop-color="#e5e5e5"/><stop offset=".83" stop-color="#000"/></linearGradient><linearGradient id="linear-gradient-4" x1="1531.62" y1="4445.15" x2="1531.62" y2="4238.25" gradientTransform="translate(1549.59 4310.13) rotate(-180)" gradientUnits="userSpaceOnUse"><stop offset=".81" stop-color="#e5e5e5"/><stop offset=".83" stop-color="#000"/></linearGradient></defs><g><rect class="cls-2" x="3.56" y="3.45" width="28.93" height="28.93"/><polygon class="cls-1" points="3.57 3.45 .01 0 35.92 0 32.49 3.45 3.57 3.45"/><polygon class="cls-6" points="3.56 35.71 0 35.71 .01 0 3.56 3.45 3.56 35.71"/><polygon class="cls-4" points="32.5 3.45 35.91 0 35.91 35.78 32.49 32.37 32.5 3.45"/><polygon class="cls-5" points="32.49 32.38 35.95 35.8 0 35.8 3.56 32.37 32.49 32.38"/></g><g><line class="cls-3" x1="10.91" y1="17.78" x2="25.02" y2="17.78"/><line class="cls-3" x1="17.96" y1="10.72" x2="17.96" y2="24.83"/></g></svg>