<?xml version="1.0" encoding="UTF-8"?><svg id="Layer_1" xmlns="http://www.w3.org/2000/svg" xmlns:xlink="http://www.w3.org/1999/xlink" viewBox="0 0 420.87 548.92"><defs><style>.cls-1{fill:url(#linear-gradient);}.cls-2{fill:url(#linear-gradient-8);}.cls-3{fill:url(#linear-gradient-3);}.cls-4{fill:url(#linear-gradient-4);}.cls-5{fill:url(#linear-gradient-2);}.cls-6{fill:url(#linear-gradient-6);}.cls-7{fill:url(#linear-gradient-7);}.cls-8{fill:url(#linear-gradient-5);}</style><linearGradient id="linear-gradient" x1="3311.35" y1="956.37" x2="3311.35" y2="587.81" gradientTransform="translate(-652.09 3585.93) rotate(-90)" gradientUnits="userSpaceOnUse"><stop offset=".81" stop-color="#e5e5e5"/><stop offset=".83" stop-color="#000"/></linearGradient><linearGradient id="linear-gradient-2" x1="-2222.11" y1="4571.4" x2="-2222.11" y2="4202.84" gradientTransform="translate(4279.05 2496.82) rotate(90)" xlink:href="#linear-gradient"/><linearGradient id="linear-gradient-3" x1="3311.13" y1="1364.96" x2="3311.13" y2="996.4" xlink:href="#linear-gradient"/><linearGradient id="linear-gradient-4" x1="-2222.43" y1="4166.51" x2="-2222.43" y2="3793.03" gradientTransform="translate(4279.05 2496.82) rotate(90)" xlink:href="#linear-gradient"/><linearGradient id="linear-gradient-5" x1="-834.82" y1="-322.41" x2="-834.82" y2="-704.77" gradientTransform="translate(1045.36 638.07)" xlink:href="#linear-gradient"/><linearGradient id="linear-gradient-6" x1="1924.03" y1="5848.4" x2="1924.03" y2="5495.51" gradientTransform="translate(2134.46 5569.22) rotate(-180)" xlink:href="#linear-gradient"/><linearGradient id="linear-gradient-7" x1="-834.98" y1="203.2" x2="-834.98" y2="-165.36" gradientTransform="translate(1045.36 638.07)" xlink:href="#linear-gradient"/><linearGradient id="linear-gradient-8" x1="1924.03" y1="5310.93" x2="1924.03" y2="4958.89" gradientTransform="translate(2134.46 5569.22) rotate(-180)" xlink:href="#linear-gradient"/></defs><polygon class="cls-1" points="5.82 543.1 0 548.92 .18 .23 6.1 6.33 5.82 543.1"/><polygon class="cls-5" points="6.1 6.33 11.92 12.15 11.92 537 5.82 543.1 6.1 6.33"/><polygon class="cls-3" points="414.68 543.18 408.59 537.19 408.77 12.15 414.69 6.41 414.68 543.18"/><polygon class="cls-4" points="414.69 6.41 420.87 0 420.87 548.78 414.77 542.94 414.69 6.41"/><polygon class="cls-8" points="6.1 6.31 .21 .23 420.87 0 414.69 6.33 6.1 6.31"/><polygon class="cls-6" points="414.77 6.33 408.77 12.15 11.92 12.15 6.1 6.31 414.77 6.33"/><polygon class="cls-7" points="5.82 543.08 11.92 537 408.84 537 414.93 543.1 5.82 543.08"/><polygon class="cls-2" points="414.92 543.1 420.87 548.78 0 548.92 5.82 543.1 414.92 543.1"/></svg>