<svg xmlns="http://www.w3.org/2000/svg" xmlns:xlink="http://www.w3.org/1999/xlink" viewBox="0 0 411.57 268.47"><defs><style>.cls-1{fill:url(#linear-gradient);}.cls-2{fill:#e5e5e5;}.cls-3{fill:url(#linear-gradient-2);}.cls-4{fill:url(#linear-gradient-3);}.cls-5{fill:url(#linear-gradient-4);}.cls-6{fill:#bdbdbc;}.cls-7{fill:#333;}.cls-8{fill:url(#linear-gradient-5);}.cls-9{fill:url(#linear-gradient-6);}.cls-10{fill:url(#linear-gradient-7);}.cls-11{fill:url(#linear-gradient-8);}.cls-12{fill:#595959;}.cls-13{fill:url(#linear-gradient-9);}.cls-14{fill:url(#linear-gradient-10);}.cls-15{fill:url(#linear-gradient-11);}.cls-16{fill:url(#linear-gradient-12);}</style><linearGradient id="linear-gradient" x1="8083.81" y1="-413.79" x2="8083.81" y2="-623.56" gradientTransform="translate(586.98 8218.04) rotate(-90)" gradientUnits="userSpaceOnUse"><stop offset="0.81" stop-color="#e5e5e5"/><stop offset="0.83"/></linearGradient><linearGradient id="linear-gradient-2" x1="8494.66" y1="9775.1" x2="8494.66" y2="9572.58" gradientTransform="translate(8688.95 9876.37) rotate(180)" gradientUnits="userSpaceOnUse"><stop offset="0.81" stop-color="#e5e5e5"/><stop offset="0.83" stop-color="#fff"/></linearGradient><linearGradient id="linear-gradient-3" x1="-1677.67" y1="10223.98" x2="-1677.67" y2="10005.24" gradientTransform="translate(10431.97 1811.9) rotate(90)" xlink:href="#linear-gradient-2"/><linearGradient id="linear-gradient-4" x1="-1661.87" y1="-633.81" x2="-1661.87" y2="-834.65" gradientTransform="translate(1856.16 799.62)" xlink:href="#linear-gradient"/><linearGradient id="linear-gradient-5" x1="400.11" y1="174.46" x2="400.11" y2="-35.65" gradientUnits="userSpaceOnUse"><stop offset="0.81" stop-color="#bdbdbc"/><stop offset="0.83" stop-color="#fff"/></linearGradient><linearGradient id="linear-gradient-6" x1="8052.99" y1="2311.35" x2="8052.99" y2="2094.83" gradientTransform="translate(-1743.02 8064.47) rotate(-90)" xlink:href="#linear-gradient-5"/><linearGradient id="linear-gradient-7" x1="-1646.86" y1="7863.35" x2="-1646.86" y2="7654.99" gradientTransform="translate(8101.97 1658.33) rotate(90)" gradientUnits="userSpaceOnUse"><stop offset="0.81" stop-color="#bdbdbc"/><stop offset="0.83"/></linearGradient><linearGradient id="linear-gradient-8" x1="6432.67" y1="9226.83" x2="6432.67" y2="9018.46" gradientTransform="translate(6832.79 9076.76) rotate(180)" xlink:href="#linear-gradient-7"/><linearGradient id="linear-gradient-9" x1="400.06" y1="419.7" x2="400.06" y2="209.99" xlink:href="#linear-gradient-5"/><linearGradient id="linear-gradient-10" x1="7807.45" y1="2310.99" x2="7807.45" y2="2094.88" gradientTransform="translate(-1743.02 8064.47) rotate(-90)" xlink:href="#linear-gradient-5"/><linearGradient id="linear-gradient-11" x1="-1401.32" y1="7863.09" x2="-1401.32" y2="7655.12" xlink:href="#linear-gradient-7"/><linearGradient id="linear-gradient-12" x1="6432.71" y1="8980.97" x2="6432.71" y2="8773" gradientTransform="translate(6832.79 9076.76) rotate(180)" xlink:href="#linear-gradient-7"/></defs><g id="Layer_2" data-name="Layer 2"><g id="Layer_1-2" data-name="Layer 1"><polygon class="cls-1" points="3.48 265.12 0.01 268.47 0.01 0 3.48 3.31 3.48 265.12"/><polygon class="cls-2" points="384.96 265.52 2.78 264.73 3.33 2.54 385.31 3.33 384.96 265.52"/><polygon class="cls-3" points="384.97 265.12 388.57 268.47 0.01 268.47 3.48 265.12 384.97 265.12"/><polygon class="cls-4" points="384.97 0 388.58 0 388.55 268.47 384.96 265.12 384.97 0"/><polygon class="cls-5" points="3.5 3.31 0 0 388.58 0 384.96 3.32 3.5 3.31"/><rect class="cls-6" x="389.08" y="0.5" width="21.99" height="267.47"/><path class="cls-7" d="M410.57,1V267.47h-21V1h21m1-1h-23V268.47h23V0Z"/><polygon class="cls-8" points="393.16 4.48 389.58 1 410.63 1 407.18 4.48 393.16 4.48"/><polygon class="cls-9" points="393.16 21.95 389.58 21.95 389.59 1 393.16 4.48 393.16 21.95"/><polygon class="cls-10" points="407.19 4.48 410.63 1 410.63 21.94 407.18 18.5 407.19 4.48"/><polygon class="cls-11" points="407.19 18.51 410.66 21.95 389.58 21.95 393.16 18.5 407.19 18.51"/><rect class="cls-6" x="393.16" y="4.46" width="14.02" height="14.02"/><polygon class="cls-12" points="396.33 14.39 400.17 6.89 404.01 14.39 396.33 14.39"/><polygon class="cls-13" points="393.13 250.04 389.56 246.57 410.57 246.57 407.13 250.04 393.13 250.04"/><polygon class="cls-14" points="393.13 267.48 389.56 267.48 389.57 246.57 393.13 250.04 393.13 267.48"/><polygon class="cls-15" points="407.13 250.04 410.57 246.57 410.57 267.47 407.13 264.03 407.13 250.04"/><polygon class="cls-16" points="407.13 264.04 410.6 267.48 389.56 267.48 393.13 264.03 407.13 264.04"/><rect class="cls-6" x="393.13" y="250.02" width="14" height="14"/><polygon class="cls-12" points="403.96 253.29 400.13 260.78 396.3 253.29 403.96 253.29"/></g></g></svg>